<svg xmlns="http://www.w3.org/2000/svg" viewBox="0 0 78 76">
  <g fill="#000000" transform="translate(1.01 1)">
    <path d="M50.0027358,74.4229543 L49.6956165,73.4712833 C65.0623093,68.5122082 75.6745284,54.2202713 75.6745284,37.8942773 C75.6745284,17.2425584 58.846704,0.5 38.0872642,0.5 C17.3278244,0.5 0.5,17.2425584 0.5,37.8942773 C0.5,54.3278177 11.2519204,68.6916866 26.7620654,73.5614218 L26.4625121,74.5155013 C10.539076,69.5160047 -0.5,54.7685146 -0.5,37.8942773 C-0.5,16.6891333 16.7766736,-0.5 38.0872642,-0.5 C59.3978548,-0.5 76.6745284,16.6891333 76.6745284,37.8942773 C76.6745284,54.6580757 65.7788569,69.3317502 50.0027358,74.4229543 Z"/>
    <path d="M10.6501979,53.4404313 C10.6516668,53.4358054 10.6525997,53.4315554 10.6529882,53.4278001 C10.6528524,53.4291128 10.6527356,53.4304698 10.6526379,53.4318702 L10.6501979,53.4404313 Z M10.6585815,53.5054306 C10.7778783,53.8736602 10.9340185,54.0930817 11.0214261,54.1430561 C12.7730839,55.1445492 13.7432515,55.9547867 14.4438781,56.9295225 C15.189892,57.9674026 15.8270873,59.2060572 16.3311294,60.586234 C17.0205219,61.9076636 17.6370676,62.7732567 18.1525435,63.1720285 C18.6737444,63.5752293 19.7491048,64.0135412 21.2770978,64.4457695 C22.8408047,64.6253632 24.0264904,64.7301302 24.8298106,64.7601608 C25.4900699,64.7848432 26.7242282,64.6888302 28.5124225,64.4708321 L29.0705428,64.4027919 L29.0729248,64.9650393 C29.0847822,67.8941514 29.0465729,69.9762326 28.9013038,72.3765553 C28.8391919,73.4028496 28.1155728,74.3228442 26.8515099,74.5319537 C26.6113117,74.5716888 26.493951,74.5386262 26.1440239,74.4000437 C26.0051379,74.3450404 25.9418235,74.3271194 25.8993397,74.3271194 L25.8993397,73.3271194 C26.1068877,73.3271194 26.260435,73.3705806 26.5122322,73.4703004 C26.663194,73.5300861 26.7066461,73.5423274 26.6883015,73.5453621 C27.4622684,73.4173275 27.8676802,72.9018951 27.9031302,72.3161452 C28.0384063,70.0809385 28.0798942,68.1221494 28.0747165,65.5297456 C26.5342744,65.7069737 25.444939,65.7838546 24.7924537,65.7594627 C23.9584066,65.7282835 22.7500357,65.6215121 21.0858252,65.4241517 C19.3647237,64.944528 18.1911217,64.4661732 17.5406641,63.9629796 C16.8844814,63.4553571 16.1951781,62.4876168 15.4186487,60.9903298 C14.918566,59.6327218 14.3224595,58.4739405 13.6318766,57.5131779 C13.0234839,56.666761 12.1611753,55.9466022 10.5250833,55.0111827 C10.2019387,54.826428 9.90954079,54.4155257 9.75679907,53.9878557 C9.55262712,53.4161833 9.60950988,52.8663745 10.1396905,52.6373463 C11.8829188,51.8843041 14.2878974,52.2414281 16.1449874,54.2364434 C17.5223734,55.7161274 18.5816541,57.0265023 19.323699,58.1711033 C20.9513856,59.7372614 22.6447593,60.4075293 24.4309843,60.2146253 C25.8371763,60.0627631 27.1073952,59.8375029 28.2413297,59.5394375 C28.5883347,57.642212 29.1402671,56.1934031 29.9126575,55.198072 C24.9138434,54.4886723 20.9959784,53.0197368 18.2772821,50.617581 C14.9345433,47.6640405 13.2114151,42.6872034 13.2114151,37.4507511 C13.2114151,33.5601537 14.3889757,29.9217393 16.7033577,27.1898596 C16.8530675,27.0131433 17.0072646,26.8385743 17.1658738,26.6662101 C17.1614115,26.5812009 17.1529319,26.5121161 17.1412059,26.4601079 C17.1099643,26.3215421 16.9992069,25.838205 16.9871332,25.7851211 C16.5910273,24.043583 16.4336899,22.9425961 16.4762808,21.5771417 C16.5519289,19.1518845 16.9663223,17.4554629 17.7611417,16.4728402 L18.0030607,16.309331 C18.9597492,16.0154392 20.8415097,16.3960598 23.7787516,17.4204116 C24.8488651,17.7936096 25.761008,18.2258018 26.615259,18.7399793 C27.0333402,18.9916242 27.4187222,19.2500413 27.8739668,19.5764422 C27.9120678,19.6037599 28.4109113,19.9671094 28.7185204,20.1877415 C28.9167809,20.1346557 29.1544983,20.0693656 29.532679,19.9650305 C30.3440791,19.7428048 30.8756996,19.6115626 31.4644584,19.4994125 C33.5765365,19.0970922 35.9434448,18.872607 38.0328538,18.872607 C41.2960271,18.872607 44.501914,19.3007569 47.5348295,20.1428661 C48.9858691,19.1464477 49.9548982,18.6407622 52.3496586,17.5275588 C54.7496675,16.4119157 57.2422283,15.9765453 58.0557166,16.5036631 C58.8596512,17.0245904 59.6296058,20.1247122 59.6982423,22.3017481 C59.7506959,23.8987153 59.6163539,25.0088469 59.0145282,26.5561412 C59.3428286,26.9467828 59.7794231,27.5204369 60.2547107,28.1689842 C62.0408699,30.6062639 62.8542925,33.8020696 62.8542925,37.4507511 C62.8542925,42.5206647 61.6031177,46.8629605 58.7883465,49.6469018 C55.9360279,52.4679794 51.5708622,54.2726261 46.0809684,55.1320215 C46.4492481,55.5772224 46.7188881,55.9380146 46.8919253,56.2183228 C47.4712209,57.1567412 47.6320812,57.8168839 47.8370284,59.4425041 C47.9345929,60.1691139 47.9492719,62.1634434 47.9464164,70.0932125 C47.946007,71.2301656 47.9458491,71.8399765 47.9458491,72.5578887 C47.9458491,73.1267774 48.8702769,73.7673475 49.9951447,73.3573508 L50.3375913,74.2968881 C48.5626656,74.9438207 46.9458491,73.823469 46.9458491,72.5578887 C46.9458491,71.8398222 46.946007,71.2299197 46.9464164,70.0928524 C46.9492139,62.3242456 46.933776,60.2268012 46.8370284,59.4425041 C46.6579022,58.0816989 46.5215233,57.5220238 46.0409993,56.7436084 C45.8221574,56.3890997 45.3850072,55.8363499 44.7361038,55.0979897 L44.120206,54.3971853 L45.0448078,54.272412 C50.7636543,53.5006644 55.2572498,51.7328329 58.0851442,48.9359121 C60.674043,46.3753691 61.8542925,42.279225 61.8542925,37.4507511 C61.8542925,33.9972195 61.092364,31.0037258 59.4481196,28.7600941 C58.8868672,27.9942446 58.3718018,27.3241548 58.0676551,26.9913441 L57.853628,26.7571463 L57.9743698,26.4637563 C58.6136118,24.9104649 58.7498721,23.8900579 58.7034988,22.4784114 C58.6407532,20.4940485 57.9245213,17.6102343 57.5119251,17.3428835 C57.0896599,17.0692674 54.876103,17.4559047 52.7711906,18.4343724 C50.3113205,19.577842 49.4118544,20.0544574 47.9617574,21.1322597 L47.7387389,21.2980208 L47.4802072,21.1961615 L47.2182028,21.0899536 C44.3228132,20.2887759 41.2066372,19.872607 38.0328538,19.872607 C36.0063844,19.872607 33.7021224,20.0911507 31.6515794,20.4817494 C31.0946318,20.5878399 30.5848028,20.7137023 29.7968305,20.9295117 C29.2696292,21.0749766 29.0085679,21.1464114 28.745871,21.214826 L28.5231161,21.2728383 L28.3341973,21.1413284 C28.1129659,20.9873251 27.3313508,20.417869 27.29128,20.389139 C26.856056,20.0770924 26.4917817,19.8328292 26.0995639,19.5967515 C25.3032227,19.1174302 24.4533486,18.7147422 23.4494561,18.3646385 C20.9039055,17.4768875 19.1986136,17.1078626 18.4403035,17.2323731 C17.8747977,18.038349 17.541518,19.5012459 17.4757947,21.6083183 C17.4364608,22.8693531 17.58347,23.8980672 17.9622295,25.5633393 C17.9739534,25.614885 18.0850134,26.0995429 18.1167186,26.2401647 C18.1555396,26.4123473 18.1718622,26.6188033 18.1691909,26.8647695 L18.16707,27.060048 L18.0331576,27.2021946 C17.837143,27.410262 17.6481628,27.6216567 17.4663594,27.8362561 C15.3146379,30.3761324 14.2114151,33.7848589 14.2114151,37.4507511 C14.2114151,42.425172 15.840351,47.1299575 18.939416,49.8681954 C21.6566277,52.2690395 25.7304641,53.7047201 31.0202707,54.3339518 L32.1973322,54.4739653 L31.2755847,55.2192565 C30.3257369,55.9872687 29.6294662,57.4916256 29.2206364,59.7433632 C29.2069759,59.8186019 29.1943156,59.8988037 29.182632,59.9841091 C29.18175,59.990572 29.0609102,60.1353276 28.8201125,60.4183761 C27.5397649,60.776627 26.1186302,61.038182 24.5383554,61.2088443 C22.4218155,61.4374208 20.4285225,60.6396689 18.5863208,58.8491257 C17.8067669,57.6607727 16.7727232,56.3784709 15.4130315,54.9177955 C13.9071545,53.3000774 12.0248783,52.9797107 10.6585815,53.5054306 Z"/>
  </g>
</svg>
