
<svg width="79px" height="247px" viewBox="0 0 79 247" version="1.1" xmlns="http://www.w3.org/2000/svg" xmlns:xlink="http://www.w3.org/1999/xlink">
    <!-- Generator: Sketch 50.2 (55047) - http://www.bohemiancoding.com/sketch -->
    <desc>Created with Sketch.</desc>
    <defs></defs>
    <g id="Symbols" stroke="none" stroke-width="1" fill="none" fill-rule="evenodd">
        <g id="Github" transform="translate(1.000000, 1.000000)" fill-rule="nonzero">
            <g transform="translate(0.009662, 170.000000)" fill="#FAD393">
                <path d="M50.6501277,75.3833065 L50.3430084,74.4316355 C65.9119272,69.4072988 76.663808,54.9272735 76.663808,38.3864108 C76.663808,17.4628941 59.6145258,0.5 38.581904,0.5 C17.5492822,0.5 0.5,17.4628941 0.5,38.3864108 C0.5,55.0362354 11.3934204,69.5891391 27.1076795,74.5229602 L26.8081262,75.4770398 C10.680576,70.4134573 -0.5,55.4769323 -0.5,38.3864108 C-0.5,16.909469 16.9981314,-0.5 38.581904,-0.5 C60.1656766,-0.5 77.663808,16.909469 77.663808,38.3864108 C77.663808,55.3650779 66.6284749,70.2268409 50.6501277,75.3833065 Z" id="Oval-3"></path>
                <path d="M10.782069,54.1333583 C10.7835639,54.1287951 10.7845038,54.1246328 10.7848797,54.1209993 C10.7847476,54.1222758 10.7846326,54.1235912 10.7845348,54.124945 L10.782069,54.1333583 Z M11.1613385,54.8518499 C12.9349946,55.8659203 13.9170615,56.6860954 14.6261882,57.6726569 C15.3815306,58.7235152 16.0267344,59.9777376 16.5374648,61.3760717 C17.2362082,62.7154252 17.8612335,63.592923 18.3843175,63.9975805 C18.9131267,64.4066669 20.0030907,64.8509312 21.5526828,65.2891786 C23.1368491,65.4711222 24.3380807,65.5772628 25.1520331,65.6076908 C25.8213119,65.6327104 27.0717551,65.5354305 28.8834995,65.3145615 L29.4416198,65.2465212 L29.4440018,65.8087686 C29.4560127,68.7757922 29.4173094,70.8847882 29.2701638,73.3161182 C29.2074183,74.3528804 28.4764678,75.282196 27.199171,75.4934947 C26.9575322,75.5334682 26.8391273,75.5001113 26.4859476,75.3602408 C26.3445248,75.3042327 26.2798022,75.2859132 26.2356947,75.2859132 L26.2356947,74.2859132 C26.4448663,74.2859132 26.5998218,74.3297729 26.854156,74.4304975 C27.0083702,74.4915713 27.0528666,74.5041067 27.0359626,74.5069031 C27.8231634,74.3766792 28.2359067,73.8519259 28.2719902,73.2557081 C28.4091591,70.9892255 28.4511393,69.0033036 28.4458021,66.3734991 C26.881849,66.5535832 25.7762477,66.6317243 25.1146761,66.6069928 C24.2699968,66.5754161 23.0460801,66.467271 21.3614103,66.2675608 C19.6187096,65.781918 18.430504,65.2976109 17.7724382,64.7885316 C17.1086473,64.2750234 16.4108645,63.2953783 15.6249842,61.7801675 C15.1182131,60.4044021 14.5140982,59.2300531 13.8141867,58.2563123 C13.1972939,57.3980698 12.3230861,56.6679733 10.6649957,55.7199765 C10.3391852,55.5336975 10.0438747,55.1187022 9.88962595,54.6868126 C9.68381155,54.1105415 9.74106977,53.5571036 10.2739499,53.3269093 C12.0374239,52.5651213 14.4706869,52.9264453 16.3499096,54.9452372 C17.7451981,56.4441532 18.818143,57.7714726 19.5696144,58.9307323 C21.2199184,60.5188638 22.9373115,61.1987398 24.748967,61.0030894 C26.1753804,60.8490434 27.4637439,60.6204508 28.6137454,60.3179067 C28.9660739,58.3893286 29.5273039,56.918345 30.3131399,55.9100737 C25.2452611,55.1922224 21.2738628,53.7042425 18.518949,51.270086 C15.1343803,48.2795859 13.3894854,43.2398812 13.3894854,37.9371245 C13.3894854,33.997459 14.5818563,30.3132839 16.9252389,27.5471721 C17.0774166,27.3675427 17.2341736,27.1901038 17.395433,27.0149142 C17.3909325,26.9271888 17.3822404,26.8559263 17.3701535,26.8023175 C17.3385031,26.6619387 17.2263054,26.172316 17.2140771,26.1185527 C16.8129396,24.3548925 16.6536259,23.2400762 16.6967488,21.8575668 C16.7733391,19.4021038 17.1928141,17.6848794 17.9968545,16.6908569 L18.2387735,16.5273477 C19.2060266,16.2302105 21.1114417,16.6156157 24.0854282,17.6527821 C25.1690093,18.0306768 26.0925939,18.4682903 26.957563,18.9889191 C27.3809059,19.2437311 27.7711559,19.5054123 28.2321827,19.835959 C28.2708402,19.8636756 28.7787559,20.2336345 29.0902002,20.4569869 C29.29166,20.403061 29.5329667,20.3367874 29.9179356,20.2305795 C30.7397211,20.0055094 31.2781043,19.8725977 31.8743028,19.7590305 C34.0134109,19.3515614 36.4106515,19.1241993 38.526787,19.1241993 C41.8317587,19.1241993 45.078698,19.5578318 48.1497846,20.4105033 C49.6241012,19.4013695 50.6051398,18.8893244 53.0322616,17.7610778 C55.4615231,16.6318366 57.9846431,16.1911285 58.8061558,16.7234459 C59.61799,17.2494918 60.3975952,20.3884703 60.4670539,22.5915858 C60.5201992,24.2096127 60.3839739,25.3339198 59.7735034,26.9022586 C60.1062135,27.297875 60.5494363,27.8801753 61.0320018,28.5386536 C62.8404364,31.0063288 63.6640885,34.2423247 63.6640885,37.9371245 C63.6640885,43.0713133 62.3971252,47.4684042 59.5472653,50.2870499 C56.6570644,53.1455948 52.2323991,54.9737115 46.6671429,55.8433698 C47.0437494,56.2981759 47.3191383,56.666333 47.4953859,56.9518419 C48.0815633,57.9014086 48.2443539,58.5694721 48.4477107,60.1507067 C48.5506213,60.9509056 48.5654958,62.971805 48.5626036,71.0035117 C48.5621889,72.1552311 48.562029,72.7729622 48.562029,73.5001989 C48.562029,74.0809998 49.5029584,74.7330044 50.6466559,74.3161446 L50.9891026,75.2556818 C49.1953471,75.9094776 47.562029,74.7776914 47.562029,73.5001989 C47.562029,72.7728079 47.5621889,72.1549852 47.5626037,71.0031516 C47.5654378,63.1326072 47.5498044,61.0085928 47.4558793,60.2782625 C47.2701749,58.8342871 47.1318658,58.2666911 46.6444599,57.4771274 C46.422538,57.1176294 45.9795229,56.5574638 45.3219697,55.8092614 L44.706072,55.108457 L45.6306738,54.9836837 C51.425063,54.2017417 55.9782803,52.4104543 58.8440629,49.5760602 C61.4680506,46.9808128 62.6640885,42.8298737 62.6640885,37.9371245 C62.6640885,34.4374746 61.8919305,31.4037907 60.2254108,29.1297634 C59.656717,28.3537599 59.1348904,27.674874 58.8265739,27.3375005 L58.6125468,27.1033027 L58.7332886,26.8099127 C59.3812281,25.2354874 59.5193752,24.2009502 59.4723719,22.7701256 C59.4087426,20.7578067 58.6828601,17.8351358 58.2623643,17.5626662 C57.8320748,17.2838506 55.5879586,17.6758256 53.4537935,18.6678914 C50.961581,19.8263954 50.0501637,20.3093436 48.5807637,21.401493 L48.3577453,21.5672542 L48.0992136,21.4653948 L47.8331579,21.3575908 C44.8995972,20.5458508 41.7423688,20.1241993 38.526787,20.1241993 C36.4735911,20.1241993 34.1389968,20.3456198 32.0614238,20.7413674 C31.4970365,20.848875 30.9804449,20.9764069 30.1820871,21.1950607 C29.6480278,21.3424177 29.3836209,21.414768 29.1175575,21.4840593 L28.8948026,21.5420717 L28.7058837,21.4105617 C28.4818474,21.2546058 27.6901373,20.6777948 27.6494959,20.6486558 C27.2084896,20.3324634 26.8393475,20.084936 26.441868,19.8456913 C25.6348086,19.3599187 24.7734928,18.9518094 23.7561327,18.597009 C21.173753,17.696414 19.4447091,17.3225733 18.67603,17.4502246 C18.1013301,18.267507 17.7629342,19.7512727 17.6962627,21.8887434 C17.6563968,23.1668333 17.8053824,24.2093767 18.1891735,25.8967709 C18.2010519,25.948996 18.3135522,26.4399395 18.3456662,26.5823743 C18.3848654,26.7562344 18.4013623,26.9648947 18.3986612,27.2135921 L18.3965404,27.4088706 L18.262628,27.5510172 C18.0639899,27.7618695 17.8724793,27.9760946 17.6882406,28.1935686 C15.5075186,30.767677 14.3894854,34.2221642 14.3894854,37.9371245 C14.3894854,42.9778498 16.040188,47.745503 19.1810829,50.5207005 C21.9347414,52.9537478 26.062667,54.4084902 31.4223644,55.0460356 L32.5994258,55.1860491 L31.6776783,55.9313403 C30.7140625,56.7104847 30.0081272,58.235723 29.5937361,60.518091 C29.5798809,60.5944024 29.5670415,60.6757385 29.5551937,60.7622423 C29.5542995,60.7687954 29.4334474,60.9136415 29.1926375,61.1967805 C27.8960379,61.5595789 26.4567959,61.8244664 24.8563381,61.9973084 C22.7143596,62.2286322 20.6970413,61.4212649 18.8322274,59.6087437 C18.0432519,58.4057387 16.9955466,57.1064955 15.6179537,55.6265892 C14.0887866,53.9838514 12.1765195,53.6600242 10.7897254,54.1961542 C10.9122122,54.5768368 11.071265,54.8003512 11.1613385,54.8518499 Z" id="Combined-Shape"></path>
            </g>
            <g transform="translate(0.009662, 85.000000)" fill="#6A8250">
                <path d="M50.6501277,75.3833065 L50.3430084,74.4316355 C65.9119272,69.4072988 76.663808,54.9272735 76.663808,38.3864108 C76.663808,17.4628941 59.6145258,0.5 38.581904,0.5 C17.5492822,0.5 0.5,17.4628941 0.5,38.3864108 C0.5,55.0362354 11.3934204,69.5891391 27.1076795,74.5229602 L26.8081262,75.4770398 C10.680576,70.4134573 -0.5,55.4769323 -0.5,38.3864108 C-0.5,16.909469 16.9981314,-0.5 38.581904,-0.5 C60.1656766,-0.5 77.663808,16.909469 77.663808,38.3864108 C77.663808,55.3650779 66.6284749,70.2268409 50.6501277,75.3833065 Z" id="Oval-3"></path>
                <path d="M10.782069,54.1333583 C10.7835639,54.1287951 10.7845038,54.1246328 10.7848797,54.1209993 C10.7847476,54.1222758 10.7846326,54.1235912 10.7845348,54.124945 L10.782069,54.1333583 Z M11.1613385,54.8518499 C12.9349946,55.8659203 13.9170615,56.6860954 14.6261882,57.6726569 C15.3815306,58.7235152 16.0267344,59.9777376 16.5374648,61.3760717 C17.2362082,62.7154252 17.8612335,63.592923 18.3843175,63.9975805 C18.9131267,64.4066669 20.0030907,64.8509312 21.5526828,65.2891786 C23.1368491,65.4711222 24.3380807,65.5772628 25.1520331,65.6076908 C25.8213119,65.6327104 27.0717551,65.5354305 28.8834995,65.3145615 L29.4416198,65.2465212 L29.4440018,65.8087686 C29.4560127,68.7757922 29.4173094,70.8847882 29.2701638,73.3161182 C29.2074183,74.3528804 28.4764678,75.282196 27.199171,75.4934947 C26.9575322,75.5334682 26.8391273,75.5001113 26.4859476,75.3602408 C26.3445248,75.3042327 26.2798022,75.2859132 26.2356947,75.2859132 L26.2356947,74.2859132 C26.4448663,74.2859132 26.5998218,74.3297729 26.854156,74.4304975 C27.0083702,74.4915713 27.0528666,74.5041067 27.0359626,74.5069031 C27.8231634,74.3766792 28.2359067,73.8519259 28.2719902,73.2557081 C28.4091591,70.9892255 28.4511393,69.0033036 28.4458021,66.3734991 C26.881849,66.5535832 25.7762477,66.6317243 25.1146761,66.6069928 C24.2699968,66.5754161 23.0460801,66.467271 21.3614103,66.2675608 C19.6187096,65.781918 18.430504,65.2976109 17.7724382,64.7885316 C17.1086473,64.2750234 16.4108645,63.2953783 15.6249842,61.7801675 C15.1182131,60.4044021 14.5140982,59.2300531 13.8141867,58.2563123 C13.1972939,57.3980698 12.3230861,56.6679733 10.6649957,55.7199765 C10.3391852,55.5336975 10.0438747,55.1187022 9.88962595,54.6868126 C9.68381155,54.1105415 9.74106977,53.5571036 10.2739499,53.3269093 C12.0374239,52.5651213 14.4706869,52.9264453 16.3499096,54.9452372 C17.7451981,56.4441532 18.818143,57.7714726 19.5696144,58.9307323 C21.2199184,60.5188638 22.9373115,61.1987398 24.748967,61.0030894 C26.1753804,60.8490434 27.4637439,60.6204508 28.6137454,60.3179067 C28.9660739,58.3893286 29.5273039,56.918345 30.3131399,55.9100737 C25.2452611,55.1922224 21.2738628,53.7042425 18.518949,51.270086 C15.1343803,48.2795859 13.3894854,43.2398812 13.3894854,37.9371245 C13.3894854,33.997459 14.5818563,30.3132839 16.9252389,27.5471721 C17.0774166,27.3675427 17.2341736,27.1901038 17.395433,27.0149142 C17.3909325,26.9271888 17.3822404,26.8559263 17.3701535,26.8023175 C17.3385031,26.6619387 17.2263054,26.172316 17.2140771,26.1185527 C16.8129396,24.3548925 16.6536259,23.2400762 16.6967488,21.8575668 C16.7733391,19.4021038 17.1928141,17.6848794 17.9968545,16.6908569 L18.2387735,16.5273477 C19.2060266,16.2302105 21.1114417,16.6156157 24.0854282,17.6527821 C25.1690093,18.0306768 26.0925939,18.4682903 26.957563,18.9889191 C27.3809059,19.2437311 27.7711559,19.5054123 28.2321827,19.835959 C28.2708402,19.8636756 28.7787559,20.2336345 29.0902002,20.4569869 C29.29166,20.403061 29.5329667,20.3367874 29.9179356,20.2305795 C30.7397211,20.0055094 31.2781043,19.8725977 31.8743028,19.7590305 C34.0134109,19.3515614 36.4106515,19.1241993 38.526787,19.1241993 C41.8317587,19.1241993 45.078698,19.5578318 48.1497846,20.4105033 C49.6241012,19.4013695 50.6051398,18.8893244 53.0322616,17.7610778 C55.4615231,16.6318366 57.9846431,16.1911285 58.8061558,16.7234459 C59.61799,17.2494918 60.3975952,20.3884703 60.4670539,22.5915858 C60.5201992,24.2096127 60.3839739,25.3339198 59.7735034,26.9022586 C60.1062135,27.297875 60.5494363,27.8801753 61.0320018,28.5386536 C62.8404364,31.0063288 63.6640885,34.2423247 63.6640885,37.9371245 C63.6640885,43.0713133 62.3971252,47.4684042 59.5472653,50.2870499 C56.6570644,53.1455948 52.2323991,54.9737115 46.6671429,55.8433698 C47.0437494,56.2981759 47.3191383,56.666333 47.4953859,56.9518419 C48.0815633,57.9014086 48.2443539,58.5694721 48.4477107,60.1507067 C48.5506213,60.9509056 48.5654958,62.971805 48.5626036,71.0035117 C48.5621889,72.1552311 48.562029,72.7729622 48.562029,73.5001989 C48.562029,74.0809998 49.5029584,74.7330044 50.6466559,74.3161446 L50.9891026,75.2556818 C49.1953471,75.9094776 47.562029,74.7776914 47.562029,73.5001989 C47.562029,72.7728079 47.5621889,72.1549852 47.5626037,71.0031516 C47.5654378,63.1326072 47.5498044,61.0085928 47.4558793,60.2782625 C47.2701749,58.8342871 47.1318658,58.2666911 46.6444599,57.4771274 C46.422538,57.1176294 45.9795229,56.5574638 45.3219697,55.8092614 L44.706072,55.108457 L45.6306738,54.9836837 C51.425063,54.2017417 55.9782803,52.4104543 58.8440629,49.5760602 C61.4680506,46.9808128 62.6640885,42.8298737 62.6640885,37.9371245 C62.6640885,34.4374746 61.8919305,31.4037907 60.2254108,29.1297634 C59.656717,28.3537599 59.1348904,27.674874 58.8265739,27.3375005 L58.6125468,27.1033027 L58.7332886,26.8099127 C59.3812281,25.2354874 59.5193752,24.2009502 59.4723719,22.7701256 C59.4087426,20.7578067 58.6828601,17.8351358 58.2623643,17.5626662 C57.8320748,17.2838506 55.5879586,17.6758256 53.4537935,18.6678914 C50.961581,19.8263954 50.0501637,20.3093436 48.5807637,21.401493 L48.3577453,21.5672542 L48.0992136,21.4653948 L47.8331579,21.3575908 C44.8995972,20.5458508 41.7423688,20.1241993 38.526787,20.1241993 C36.4735911,20.1241993 34.1389968,20.3456198 32.0614238,20.7413674 C31.4970365,20.848875 30.9804449,20.9764069 30.1820871,21.1950607 C29.6480278,21.3424177 29.3836209,21.414768 29.1175575,21.4840593 L28.8948026,21.5420717 L28.7058837,21.4105617 C28.4818474,21.2546058 27.6901373,20.6777948 27.6494959,20.6486558 C27.2084896,20.3324634 26.8393475,20.084936 26.441868,19.8456913 C25.6348086,19.3599187 24.7734928,18.9518094 23.7561327,18.597009 C21.173753,17.696414 19.4447091,17.3225733 18.67603,17.4502246 C18.1013301,18.267507 17.7629342,19.7512727 17.6962627,21.8887434 C17.6563968,23.1668333 17.8053824,24.2093767 18.1891735,25.8967709 C18.2010519,25.948996 18.3135522,26.4399395 18.3456662,26.5823743 C18.3848654,26.7562344 18.4013623,26.9648947 18.3986612,27.2135921 L18.3965404,27.4088706 L18.262628,27.5510172 C18.0639899,27.7618695 17.8724793,27.9760946 17.6882406,28.1935686 C15.5075186,30.767677 14.3894854,34.2221642 14.3894854,37.9371245 C14.3894854,42.9778498 16.040188,47.745503 19.1810829,50.5207005 C21.9347414,52.9537478 26.062667,54.4084902 31.4223644,55.0460356 L32.5994258,55.1860491 L31.6776783,55.9313403 C30.7140625,56.7104847 30.0081272,58.235723 29.5937361,60.518091 C29.5798809,60.5944024 29.5670415,60.6757385 29.5551937,60.7622423 C29.5542995,60.7687954 29.4334474,60.9136415 29.1926375,61.1967805 C27.8960379,61.5595789 26.4567959,61.8244664 24.8563381,61.9973084 C22.7143596,62.2286322 20.6970413,61.4212649 18.8322274,59.6087437 C18.0432519,58.4057387 16.9955466,57.1064955 15.6179537,55.6265892 C14.0887866,53.9838514 12.1765195,53.6600242 10.7897254,54.1961542 C10.9122122,54.5768368 11.071265,54.8003512 11.1613385,54.8518499 Z" id="Combined-Shape"></path>
            </g>
            <g transform="translate(0.009662, 0.000000)" fill="#DB3C71">
                <path d="M50.0027358,74.4229543 L49.6956165,73.4712833 C65.0623093,68.5122082 75.6745284,54.2202713 75.6745284,37.8942773 C75.6745284,17.2425584 58.846704,0.5 38.0872642,0.5 C17.3278244,0.5 0.5,17.2425584 0.5,37.8942773 C0.5,54.3278177 11.2519204,68.6916866 26.7620654,73.5614218 L26.4625121,74.5155013 C10.539076,69.5160047 -0.5,54.7685146 -0.5,37.8942773 C-0.5,16.6891333 16.7766736,-0.5 38.0872642,-0.5 C59.3978548,-0.5 76.6745284,16.6891333 76.6745284,37.8942773 C76.6745284,54.6580757 65.7788569,69.3317502 50.0027358,74.4229543 Z" id="Oval-3"></path>
                <path d="M10.6501979,53.4404313 C10.6516668,53.4358054 10.6525997,53.4315554 10.6529882,53.4278001 C10.6528524,53.4291128 10.6527356,53.4304698 10.6526379,53.4318702 L10.6501979,53.4404313 Z M10.6585815,53.5054306 C10.7778783,53.8736602 10.9340185,54.0930817 11.0214261,54.1430561 C12.7730839,55.1445492 13.7432515,55.9547867 14.4438781,56.9295225 C15.189892,57.9674026 15.8270873,59.2060572 16.3311294,60.586234 C17.0205219,61.9076636 17.6370676,62.7732567 18.1525435,63.1720285 C18.6737444,63.5752293 19.7491048,64.0135412 21.2770978,64.4457695 C22.8408047,64.6253632 24.0264904,64.7301302 24.8298106,64.7601608 C25.4900699,64.7848432 26.7242282,64.6888302 28.5124225,64.4708321 L29.0705428,64.4027919 L29.0729248,64.9650393 C29.0847822,67.8941514 29.0465729,69.9762326 28.9013038,72.3765553 C28.8391919,73.4028496 28.1155728,74.3228442 26.8515099,74.5319537 C26.6113117,74.5716888 26.493951,74.5386262 26.1440239,74.4000437 C26.0051379,74.3450404 25.9418235,74.3271194 25.8993397,74.3271194 L25.8993397,73.3271194 C26.1068877,73.3271194 26.260435,73.3705806 26.5122322,73.4703004 C26.663194,73.5300861 26.7066461,73.5423274 26.6883015,73.5453621 C27.4622684,73.4173275 27.8676802,72.9018951 27.9031302,72.3161452 C28.0384063,70.0809385 28.0798942,68.1221494 28.0747165,65.5297456 C26.5342744,65.7069737 25.444939,65.7838546 24.7924537,65.7594627 C23.9584066,65.7282835 22.7500357,65.6215121 21.0858252,65.4241517 C19.3647237,64.944528 18.1911217,64.4661732 17.5406641,63.9629796 C16.8844814,63.4553571 16.1951781,62.4876168 15.4186487,60.9903298 C14.918566,59.6327218 14.3224595,58.4739405 13.6318766,57.5131779 C13.0234839,56.666761 12.1611753,55.9466022 10.5250833,55.0111827 C10.2019387,54.826428 9.90954079,54.4155257 9.75679907,53.9878557 C9.55262712,53.4161833 9.60950988,52.8663745 10.1396905,52.6373463 C11.8829188,51.8843041 14.2878974,52.2414281 16.1449874,54.2364434 C17.5223734,55.7161274 18.5816541,57.0265023 19.323699,58.1711033 C20.9513856,59.7372614 22.6447593,60.4075293 24.4309843,60.2146253 C25.8371763,60.0627631 27.1073952,59.8375029 28.2413297,59.5394375 C28.5883347,57.642212 29.1402671,56.1934031 29.9126575,55.198072 C24.9138434,54.4886723 20.9959784,53.0197368 18.2772821,50.617581 C14.9345433,47.6640405 13.2114151,42.6872034 13.2114151,37.4507511 C13.2114151,33.5601537 14.3889757,29.9217393 16.7033577,27.1898596 C16.8530675,27.0131433 17.0072646,26.8385743 17.1658738,26.6662101 C17.1614115,26.5812009 17.1529319,26.5121161 17.1412059,26.4601079 C17.1099643,26.3215421 16.9992069,25.838205 16.9871332,25.7851211 C16.5910273,24.043583 16.4336899,22.9425961 16.4762808,21.5771417 C16.5519289,19.1518845 16.9663223,17.4554629 17.7611417,16.4728402 L18.0030607,16.309331 C18.9597492,16.0154392 20.8415097,16.3960598 23.7787516,17.4204116 C24.8488651,17.7936096 25.761008,18.2258018 26.615259,18.7399793 C27.0333402,18.9916242 27.4187222,19.2500413 27.8739668,19.5764422 C27.9120678,19.6037599 28.4109113,19.9671094 28.7185204,20.1877415 C28.9167809,20.1346557 29.1544983,20.0693656 29.532679,19.9650305 C30.3440791,19.7428048 30.8756996,19.6115626 31.4644584,19.4994125 C33.5765365,19.0970922 35.9434448,18.872607 38.0328538,18.872607 C41.2960271,18.872607 44.501914,19.3007569 47.5348295,20.1428661 C48.9858691,19.1464477 49.9548982,18.6407622 52.3496586,17.5275588 C54.7496675,16.4119157 57.2422283,15.9765453 58.0557166,16.5036631 C58.8596512,17.0245904 59.6296058,20.1247122 59.6982423,22.3017481 C59.7506959,23.8987153 59.6163539,25.0088469 59.0145282,26.5561412 C59.3428286,26.9467828 59.7794231,27.5204369 60.2547107,28.1689842 C62.0408699,30.6062639 62.8542925,33.8020696 62.8542925,37.4507511 C62.8542925,42.5206647 61.6031177,46.8629605 58.7883465,49.6469018 C55.9360279,52.4679794 51.5708622,54.2726261 46.0809684,55.1320215 C46.4492481,55.5772224 46.7188881,55.9380146 46.8919253,56.2183228 C47.4712209,57.1567412 47.6320812,57.8168839 47.8370284,59.4425041 C47.9345929,60.1691139 47.9492719,62.1634434 47.9464164,70.0932125 C47.946007,71.2301656 47.9458491,71.8399765 47.9458491,72.5578887 C47.9458491,73.1267774 48.8702769,73.7673475 49.9951447,73.3573508 L50.3375913,74.2968881 C48.5626656,74.9438207 46.9458491,73.823469 46.9458491,72.5578887 C46.9458491,71.8398222 46.946007,71.2299197 46.9464164,70.0928524 C46.9492139,62.3242456 46.933776,60.2268012 46.8370284,59.4425041 C46.6579022,58.0816989 46.5215233,57.5220238 46.0409993,56.7436084 C45.8221574,56.3890997 45.3850072,55.8363499 44.7361038,55.0979897 L44.120206,54.3971853 L45.0448078,54.272412 C50.7636543,53.5006644 55.2572498,51.7328329 58.0851442,48.9359121 C60.674043,46.3753691 61.8542925,42.279225 61.8542925,37.4507511 C61.8542925,33.9972195 61.092364,31.0037258 59.4481196,28.7600941 C58.8868672,27.9942446 58.3718018,27.3241548 58.0676551,26.9913441 L57.853628,26.7571463 L57.9743698,26.4637563 C58.6136118,24.9104649 58.7498721,23.8900579 58.7034988,22.4784114 C58.6407532,20.4940485 57.9245213,17.6102343 57.5119251,17.3428835 C57.0896599,17.0692674 54.876103,17.4559047 52.7711906,18.4343724 C50.3113205,19.577842 49.4118544,20.0544574 47.9617574,21.1322597 L47.7387389,21.2980208 L47.4802072,21.1961615 L47.2182028,21.0899536 C44.3228132,20.2887759 41.2066372,19.872607 38.0328538,19.872607 C36.0063844,19.872607 33.7021224,20.0911507 31.6515794,20.4817494 C31.0946318,20.5878399 30.5848028,20.7137023 29.7968305,20.9295117 C29.2696292,21.0749766 29.0085679,21.1464114 28.745871,21.214826 L28.5231161,21.2728383 L28.3341973,21.1413284 C28.1129659,20.9873251 27.3313508,20.417869 27.29128,20.389139 C26.856056,20.0770924 26.4917817,19.8328292 26.0995639,19.5967515 C25.3032227,19.1174302 24.4533486,18.7147422 23.4494561,18.3646385 C20.9039055,17.4768875 19.1986136,17.1078626 18.4403035,17.2323731 C17.8747977,18.038349 17.541518,19.5012459 17.4757947,21.6083183 C17.4364608,22.8693531 17.58347,23.8980672 17.9622295,25.5633393 C17.9739534,25.614885 18.0850134,26.0995429 18.1167186,26.2401647 C18.1555396,26.4123473 18.1718622,26.6188033 18.1691909,26.8647695 L18.16707,27.060048 L18.0331576,27.2021946 C17.837143,27.410262 17.6481628,27.6216567 17.4663594,27.8362561 C15.3146379,30.3761324 14.2114151,33.7848589 14.2114151,37.4507511 C14.2114151,42.425172 15.840351,47.1299575 18.939416,49.8681954 C21.6566277,52.2690395 25.7304641,53.7047201 31.0202707,54.3339518 L32.1973322,54.4739653 L31.2755847,55.2192565 C30.3257369,55.9872687 29.6294662,57.4916256 29.2206364,59.7433632 C29.2069759,59.8186019 29.1943156,59.8988037 29.182632,59.9841091 C29.18175,59.990572 29.0609102,60.1353276 28.8201125,60.4183761 C27.5397649,60.776627 26.1186302,61.038182 24.5383554,61.2088443 C22.4218155,61.4374208 20.4285225,60.6396689 18.5863208,58.8491257 C17.8067669,57.6607727 16.7727232,56.3784709 15.4130315,54.9177955 C13.9071545,53.3000774 12.0248783,52.9797107 10.6585815,53.5054306 Z" id="Combined-Shape"></path>
            </g>
        </g>
    </g>
</svg>
