<svg xmlns="http://www.w3.org/2000/svg" viewBox="0 0 79 77">
  <g fill="#000000">
    <path d="M44.2800365,33.7673696 C45.9953724,32.7645171 47.5455279,32.5031996 49.45393,32.5189636 C49.5449535,32.5197418 49.5449535,32.5197418 49.6177995,32.519989 C54.8363038,32.519989 58.5421765,36.0176327 59.25,41.6974945 L59.25,56.5925064 C59.25,56.8686488 59.0261424,57.0925064 58.75,57.0925064 L50.28,57.0925064 C50.0038695,57.0925064 49.7800168,56.8686674 49.78,56.5925369 C49.779521,48.7312235 49.7434776,44.3603474 49.674085,43.5633592 C49.5479062,42.1141692 49.3570012,41.6539789 48.7222207,41.0356775 C47.8837567,40.2189803 46.9356685,39.7824936 46.2067052,39.7824936 C45.2316568,39.7824936 44.3939985,40.0171816 43.6743272,40.6305416 C43.0681422,41.1471797 42.31,42.2458509 42.31,42.6650009 L42.31,56.000001 C42.3099986,56.7330774 41.8418852,57.189032 41.0788427,57.248489 C40.8035349,57.2699412 40.5629633,57.0641506 40.541511,56.7888427 C40.5200588,56.5135349 40.7258494,56.2729633 41.0011573,56.251511 C41.2647797,56.2309693 41.3099996,56.186924 41.31,56 L41.31,42.6650009 C41.31,41.8724525 42.2159773,40.559544 43.0256728,39.8694584 C43.9516957,39.0802296 45.0143877,38.7824936 46.2067052,38.7824936 C47.2142501,38.7824936 48.4049688,39.330684 49.419968,40.3193335 C50.2405745,41.1186368 50.5246287,41.80337 50.6703159,43.4766188 C50.7421367,44.3014953 50.7779795,48.4807079 50.7799215,56.0925064 L58.25,56.0925064 L58.25,45.4475002 C58.25,42.3399973 58.25,42.3399973 58.2538799,41.7596625 C57.6109203,36.6286404 54.3171982,33.519989 49.6177995,33.519989 C49.5370294,33.519715 49.5370294,33.519715 49.44567,33.5189294 C47.7017241,33.5045239 46.3095236,33.7392142 44.7847483,34.6306575 C43.8582751,35.17231 43.0310909,35.9176404 42.3231214,36.8977808 C42.144384,37.1452319 41.7875645,37.1761659 41.5689088,36.9631664 C41.3359517,36.7362353 41.3216397,36.2346652 41.4012637,33.7374954 L34.0632948,33.7374954 L34.0632948,56.375 C34.0632948,57.7207651 31.4454123,58.1227018 27.4418513,57.9997644 C23.6403019,57.8830302 20.8511002,57.3976913 20.8511002,56.375 C20.8511002,53.1611628 20.8507335,45.3790098 20.85,33.0285567 C20.8499904,32.8667238 20.9283077,32.7148943 21.0601811,32.6210899 L24.6901811,30.0389915 C24.8615876,29.9170662 25.0909741,29.9154571 25.2640743,30.0349656 L29.0040743,32.617064 C29.1392815,32.7104111 29.22,32.8642264 29.22,33.028527 L29.22,54.5 C29.22,54.7761424 28.9961424,55 28.72,55 C28.4438576,55 28.22,54.7761424 28.22,54.5 L28.22,33.2909147 L24.984283,31.0569736 L21.8500153,33.2864468 C21.8507271,45.2935116 21.8510887,52.9378409 21.8511,56.2194491 C21.9001001,56.245562 21.9672646,56.2753634 22.0505299,56.3064106 C22.3436901,56.4157215 22.7872375,56.523634 23.3449709,56.6206831 C24.4648321,56.8155462 25.9682602,56.9540435 27.4725438,57.0002356 C30.592763,57.0960482 33.0632948,56.7167349 33.0632948,56.375 L33.0632948,33.2374954 C33.0632948,32.961353 33.2871525,32.7374954 33.5632948,32.7374954 L41.9177995,32.7374954 C42.2004137,32.7374954 42.4268598,32.9715474 42.4175268,33.2540074 C42.3900328,34.0861017 42.3731198,34.7628075 42.3667668,35.2832728 C42.9496497,34.6735427 43.5900467,34.1707646 44.2800365,33.7673696 Z"/>
    <path d="M24.9765191,29.8067991 L27.58399,27.7031254 C28.4155523,27.0191662 28.88,26.1031311 28.88,25.0892857 C28.88,23.1258809 27.1422059,21.5178571 24.98,21.5178571 C22.8177941,21.5178571 21.08,23.1258809 21.08,25.0892857 C21.08,26.0891589 21.5314717,27.0326835 22.3102454,27.7031774 L24.9765191,29.8067991 Z M21.6826948,28.4818224 C20.6663739,27.6119117 20.08,26.3905508 20.08,25.0892857 C20.08,22.5555147 22.2821001,20.5178571 24.98,20.5178571 C27.6778999,20.5178571 29.88,22.5555147 29.88,25.0892857 C29.88,26.4130178 29.2743002,27.6076459 28.2155641,28.4784266 L24.9834828,31.0860596 L21.6826948,28.4818224 Z"/>
    <path d="M39.5,76.5 C17.9637968,76.5 0.5,59.4898083 0.5,38.5 C0.5,17.5101917 17.9637968,0.5 39.5,0.5 C61.0362032,0.5 78.5,17.5101917 78.5,38.5 C78.5,59.4898083 61.0362032,76.5 39.5,76.5 Z M39.5,75.5 C60.4897226,75.5 77.5,58.9315479 77.5,38.5 C77.5,18.0684521 60.4897226,1.5 39.5,1.5 C18.5102774,1.5 1.5,18.0684521 1.5,38.5 C1.5,58.9315479 18.5102774,75.5 39.5,75.5 Z"/>
  </g>
</svg>
