
<svg width="79px" height="247px" viewBox="0 0 79 247" version="1.1" xmlns="http://www.w3.org/2000/svg" xmlns:xlink="http://www.w3.org/1999/xlink">
    <!-- Generator: Sketch 50.2 (55047) - http://www.bohemiancoding.com/sketch -->
    <desc>Created with Sketch.</desc>
    <defs></defs>
    <g id="Symbols" stroke="none" stroke-width="1" fill="none" fill-rule="evenodd">
        <g id="Linked-In" transform="translate(1.000000, 1.000000)" fill-rule="nonzero">
            <g transform="translate(0.000000, 170.000000)" fill="#FAD393">
                <path d="M43.2800365,32.7673696 C44.9953724,31.7645171 46.5455279,31.5031996 48.45393,31.5189636 C48.5449535,31.5197418 48.5449535,31.5197418 48.6177995,31.519989 C53.8363038,31.519989 57.5421765,35.0176327 58.25,40.6974945 L58.25,55.5925064 C58.25,55.8686488 58.0261424,56.0925064 57.75,56.0925064 L49.28,56.0925064 C49.0038695,56.0925064 48.7800168,55.8686674 48.78,55.5925369 C48.779521,47.7312235 48.7434776,43.3603474 48.674085,42.5633592 C48.5479062,41.1141692 48.3570012,40.6539789 47.7222207,40.0356775 C46.8837567,39.2189803 45.9356685,38.7824936 45.2067052,38.7824936 C44.2316568,38.7824936 43.3939985,39.0171816 42.6743272,39.6305416 C42.0681422,40.1471797 41.31,41.2458509 41.31,41.6650009 L41.31,55.000001 C41.3099986,55.7330774 40.8418852,56.189032 40.0788427,56.248489 C39.8035349,56.2699412 39.5629633,56.0641506 39.541511,55.7888427 C39.5200588,55.5135349 39.7258494,55.2729633 40.0011573,55.251511 C40.2647797,55.2309693 40.3099996,55.186924 40.31,55 L40.31,41.6650009 C40.31,40.8724525 41.2159773,39.559544 42.0256728,38.8694584 C42.9516957,38.0802296 44.0143877,37.7824936 45.2067052,37.7824936 C46.2142501,37.7824936 47.4049688,38.330684 48.419968,39.3193335 C49.2405745,40.1186368 49.5246287,40.80337 49.6703159,42.4766188 C49.7421367,43.3014953 49.7779795,47.4807079 49.7799215,55.0925064 L57.25,55.0925064 L57.25,44.4475002 C57.25,41.3399973 57.25,41.3399973 57.2538799,40.7596625 C56.6109203,35.6286404 53.3171982,32.519989 48.6177995,32.519989 C48.5370294,32.519715 48.5370294,32.519715 48.44567,32.5189294 C46.7017241,32.5045239 45.3095236,32.7392142 43.7847483,33.6306575 C42.8582751,34.17231 42.0310909,34.9176404 41.3231214,35.8977808 C41.144384,36.1452319 40.7875645,36.1761659 40.5689088,35.9631664 C40.3359517,35.7362353 40.3216397,35.2346652 40.4012637,32.7374954 L33.0632948,32.7374954 L33.0632948,55.375 C33.0632948,56.7207651 30.4454123,57.1227018 26.4418513,56.9997644 C22.6403019,56.8830302 19.8511002,56.3976913 19.8511002,55.375 C19.8511002,52.1611628 19.8507335,44.3790098 19.85,32.0285567 C19.8499904,31.8667238 19.9283077,31.7148943 20.0601811,31.6210899 L23.6901811,29.0389915 C23.8615876,28.9170662 24.0909741,28.9154571 24.2640743,29.0349656 L28.0040743,31.617064 C28.1392815,31.7104111 28.22,31.8642264 28.22,32.028527 L28.22,53.5 C28.22,53.7761424 27.9961424,54 27.72,54 C27.4438576,54 27.22,53.7761424 27.22,53.5 L27.22,32.2909147 L23.984283,30.0569736 L20.8500153,32.2864468 C20.8507271,44.2935116 20.8510887,51.9378409 20.8511,55.2194491 C20.9001001,55.245562 20.9672646,55.2753634 21.0505299,55.3064106 C21.3436901,55.4157215 21.7872375,55.523634 22.3449709,55.6206831 C23.4648321,55.8155462 24.9682602,55.9540435 26.4725438,56.0002356 C29.592763,56.0960482 32.0632948,55.7167349 32.0632948,55.375 L32.0632948,32.2374954 C32.0632948,31.961353 32.2871525,31.7374954 32.5632948,31.7374954 L40.9177995,31.7374954 C41.2004137,31.7374954 41.4268598,31.9715474 41.4175268,32.2540074 C41.3900328,33.0861017 41.3731198,33.7628075 41.3667668,34.2832728 C41.9496497,33.6735427 42.5900467,33.1707646 43.2800365,32.7673696 Z" id="Rectangle"></path>
                <path d="M23.9765191,28.8067991 L26.58399,26.7031254 C27.4155523,26.0191662 27.88,25.1031311 27.88,24.0892857 C27.88,22.1258809 26.1422059,20.5178571 23.98,20.5178571 C21.8177941,20.5178571 20.08,22.1258809 20.08,24.0892857 C20.08,25.0891589 20.5314717,26.0326835 21.3102454,26.7031774 L23.9765191,28.8067991 Z M20.6826948,27.4818224 C19.6663739,26.6119117 19.08,25.3905508 19.08,24.0892857 C19.08,21.5555147 21.2821001,19.5178571 23.98,19.5178571 C26.6778999,19.5178571 28.88,21.5555147 28.88,24.0892857 C28.88,25.4130178 28.2743002,26.6076459 27.2155641,27.4784266 L23.9834828,30.0860596 L20.6826948,27.4818224 Z" id="Combined-Shape"></path>
                <path d="M38.5,75.5 C16.9637968,75.5 -0.5,58.4898083 -0.5,37.5 C-0.5,16.5101917 16.9637968,-0.5 38.5,-0.5 C60.0362032,-0.5 77.5,16.5101917 77.5,37.5 C77.5,58.4898083 60.0362032,75.5 38.5,75.5 Z M38.5,74.5 C59.4897226,74.5 76.5,57.9315479 76.5,37.5 C76.5,17.0684521 59.4897226,0.5 38.5,0.5 C17.5102774,0.5 0.5,17.0684521 0.5,37.5 C0.5,57.9315479 17.5102774,74.5 38.5,74.5 Z" id="Oval"></path>
            </g>
            <g transform="translate(0.000000, 85.000000)" fill="#6A8250">
                <path d="M43.2800365,32.7673696 C44.9953724,31.7645171 46.5455279,31.5031996 48.45393,31.5189636 C48.5449535,31.5197418 48.5449535,31.5197418 48.6177995,31.519989 C53.8363038,31.519989 57.5421765,35.0176327 58.25,40.6974945 L58.25,55.5925064 C58.25,55.8686488 58.0261424,56.0925064 57.75,56.0925064 L49.28,56.0925064 C49.0038695,56.0925064 48.7800168,55.8686674 48.78,55.5925369 C48.779521,47.7312235 48.7434776,43.3603474 48.674085,42.5633592 C48.5479062,41.1141692 48.3570012,40.6539789 47.7222207,40.0356775 C46.8837567,39.2189803 45.9356685,38.7824936 45.2067052,38.7824936 C44.2316568,38.7824936 43.3939985,39.0171816 42.6743272,39.6305416 C42.0681422,40.1471797 41.31,41.2458509 41.31,41.6650009 L41.31,55.000001 C41.3099986,55.7330774 40.8418852,56.189032 40.0788427,56.248489 C39.8035349,56.2699412 39.5629633,56.0641506 39.541511,55.7888427 C39.5200588,55.5135349 39.7258494,55.2729633 40.0011573,55.251511 C40.2647797,55.2309693 40.3099996,55.186924 40.31,55 L40.31,41.6650009 C40.31,40.8724525 41.2159773,39.559544 42.0256728,38.8694584 C42.9516957,38.0802296 44.0143877,37.7824936 45.2067052,37.7824936 C46.2142501,37.7824936 47.4049688,38.330684 48.419968,39.3193335 C49.2405745,40.1186368 49.5246287,40.80337 49.6703159,42.4766188 C49.7421367,43.3014953 49.7779795,47.4807079 49.7799215,55.0925064 L57.25,55.0925064 L57.25,44.4475002 C57.25,41.3399973 57.25,41.3399973 57.2538799,40.7596625 C56.6109203,35.6286404 53.3171982,32.519989 48.6177995,32.519989 C48.5370294,32.519715 48.5370294,32.519715 48.44567,32.5189294 C46.7017241,32.5045239 45.3095236,32.7392142 43.7847483,33.6306575 C42.8582751,34.17231 42.0310909,34.9176404 41.3231214,35.8977808 C41.144384,36.1452319 40.7875645,36.1761659 40.5689088,35.9631664 C40.3359517,35.7362353 40.3216397,35.2346652 40.4012637,32.7374954 L33.0632948,32.7374954 L33.0632948,55.375 C33.0632948,56.7207651 30.4454123,57.1227018 26.4418513,56.9997644 C22.6403019,56.8830302 19.8511002,56.3976913 19.8511002,55.375 C19.8511002,52.1611628 19.8507335,44.3790098 19.85,32.0285567 C19.8499904,31.8667238 19.9283077,31.7148943 20.0601811,31.6210899 L23.6901811,29.0389915 C23.8615876,28.9170662 24.0909741,28.9154571 24.2640743,29.0349656 L28.0040743,31.617064 C28.1392815,31.7104111 28.22,31.8642264 28.22,32.028527 L28.22,53.5 C28.22,53.7761424 27.9961424,54 27.72,54 C27.4438576,54 27.22,53.7761424 27.22,53.5 L27.22,32.2909147 L23.984283,30.0569736 L20.8500153,32.2864468 C20.8507271,44.2935116 20.8510887,51.9378409 20.8511,55.2194491 C20.9001001,55.245562 20.9672646,55.2753634 21.0505299,55.3064106 C21.3436901,55.4157215 21.7872375,55.523634 22.3449709,55.6206831 C23.4648321,55.8155462 24.9682602,55.9540435 26.4725438,56.0002356 C29.592763,56.0960482 32.0632948,55.7167349 32.0632948,55.375 L32.0632948,32.2374954 C32.0632948,31.961353 32.2871525,31.7374954 32.5632948,31.7374954 L40.9177995,31.7374954 C41.2004137,31.7374954 41.4268598,31.9715474 41.4175268,32.2540074 C41.3900328,33.0861017 41.3731198,33.7628075 41.3667668,34.2832728 C41.9496497,33.6735427 42.5900467,33.1707646 43.2800365,32.7673696 Z" id="Rectangle"></path>
                <path d="M23.9765191,28.8067991 L26.58399,26.7031254 C27.4155523,26.0191662 27.88,25.1031311 27.88,24.0892857 C27.88,22.1258809 26.1422059,20.5178571 23.98,20.5178571 C21.8177941,20.5178571 20.08,22.1258809 20.08,24.0892857 C20.08,25.0891589 20.5314717,26.0326835 21.3102454,26.7031774 L23.9765191,28.8067991 Z M20.6826948,27.4818224 C19.6663739,26.6119117 19.08,25.3905508 19.08,24.0892857 C19.08,21.5555147 21.2821001,19.5178571 23.98,19.5178571 C26.6778999,19.5178571 28.88,21.5555147 28.88,24.0892857 C28.88,25.4130178 28.2743002,26.6076459 27.2155641,27.4784266 L23.9834828,30.0860596 L20.6826948,27.4818224 Z" id="Combined-Shape"></path>
                <path d="M38.5,75.5 C16.9637968,75.5 -0.5,58.4898083 -0.5,37.5 C-0.5,16.5101917 16.9637968,-0.5 38.5,-0.5 C60.0362032,-0.5 77.5,16.5101917 77.5,37.5 C77.5,58.4898083 60.0362032,75.5 38.5,75.5 Z M38.5,74.5 C59.4897226,74.5 76.5,57.9315479 76.5,37.5 C76.5,17.0684521 59.4897226,0.5 38.5,0.5 C17.5102774,0.5 0.5,17.0684521 0.5,37.5 C0.5,57.9315479 17.5102774,74.5 38.5,74.5 Z" id="Oval-6"></path>
            </g>
            <g fill="#DB3C71">
                <path d="M43.2800365,32.7673696 C44.9953724,31.7645171 46.5455279,31.5031996 48.45393,31.5189636 C48.5449535,31.5197418 48.5449535,31.5197418 48.6177995,31.519989 C53.8363038,31.519989 57.5421765,35.0176327 58.25,40.6974945 L58.25,55.5925064 C58.25,55.8686488 58.0261424,56.0925064 57.75,56.0925064 L49.28,56.0925064 C49.0038695,56.0925064 48.7800168,55.8686674 48.78,55.5925369 C48.779521,47.7312235 48.7434776,43.3603474 48.674085,42.5633592 C48.5479062,41.1141692 48.3570012,40.6539789 47.7222207,40.0356775 C46.8837567,39.2189803 45.9356685,38.7824936 45.2067052,38.7824936 C44.2316568,38.7824936 43.3939985,39.0171816 42.6743272,39.6305416 C42.0681422,40.1471797 41.31,41.2458509 41.31,41.6650009 L41.31,55.000001 C41.3099986,55.7330774 40.8418852,56.189032 40.0788427,56.248489 C39.8035349,56.2699412 39.5629633,56.0641506 39.541511,55.7888427 C39.5200588,55.5135349 39.7258494,55.2729633 40.0011573,55.251511 C40.2647797,55.2309693 40.3099996,55.186924 40.31,55 L40.31,41.6650009 C40.31,40.8724525 41.2159773,39.559544 42.0256728,38.8694584 C42.9516957,38.0802296 44.0143877,37.7824936 45.2067052,37.7824936 C46.2142501,37.7824936 47.4049688,38.330684 48.419968,39.3193335 C49.2405745,40.1186368 49.5246287,40.80337 49.6703159,42.4766188 C49.7421367,43.3014953 49.7779795,47.4807079 49.7799215,55.0925064 L57.25,55.0925064 L57.25,44.4475002 C57.25,41.3399973 57.25,41.3399973 57.2538799,40.7596625 C56.6109203,35.6286404 53.3171982,32.519989 48.6177995,32.519989 C48.5370294,32.519715 48.5370294,32.519715 48.44567,32.5189294 C46.7017241,32.5045239 45.3095236,32.7392142 43.7847483,33.6306575 C42.8582751,34.17231 42.0310909,34.9176404 41.3231214,35.8977808 C41.144384,36.1452319 40.7875645,36.1761659 40.5689088,35.9631664 C40.3359517,35.7362353 40.3216397,35.2346652 40.4012637,32.7374954 L33.0632948,32.7374954 L33.0632948,55.375 C33.0632948,56.7207651 30.4454123,57.1227018 26.4418513,56.9997644 C22.6403019,56.8830302 19.8511002,56.3976913 19.8511002,55.375 C19.8511002,52.1611628 19.8507335,44.3790098 19.85,32.0285567 C19.8499904,31.8667238 19.9283077,31.7148943 20.0601811,31.6210899 L23.6901811,29.0389915 C23.8615876,28.9170662 24.0909741,28.9154571 24.2640743,29.0349656 L28.0040743,31.617064 C28.1392815,31.7104111 28.22,31.8642264 28.22,32.028527 L28.22,53.5 C28.22,53.7761424 27.9961424,54 27.72,54 C27.4438576,54 27.22,53.7761424 27.22,53.5 L27.22,32.2909147 L23.984283,30.0569736 L20.8500153,32.2864468 C20.8507271,44.2935116 20.8510887,51.9378409 20.8511,55.2194491 C20.9001001,55.245562 20.9672646,55.2753634 21.0505299,55.3064106 C21.3436901,55.4157215 21.7872375,55.523634 22.3449709,55.6206831 C23.4648321,55.8155462 24.9682602,55.9540435 26.4725438,56.0002356 C29.592763,56.0960482 32.0632948,55.7167349 32.0632948,55.375 L32.0632948,32.2374954 C32.0632948,31.961353 32.2871525,31.7374954 32.5632948,31.7374954 L40.9177995,31.7374954 C41.2004137,31.7374954 41.4268598,31.9715474 41.4175268,32.2540074 C41.3900328,33.0861017 41.3731198,33.7628075 41.3667668,34.2832728 C41.9496497,33.6735427 42.5900467,33.1707646 43.2800365,32.7673696 Z" id="Rectangle"></path>
                <path d="M23.9765191,28.8067991 L26.58399,26.7031254 C27.4155523,26.0191662 27.88,25.1031311 27.88,24.0892857 C27.88,22.1258809 26.1422059,20.5178571 23.98,20.5178571 C21.8177941,20.5178571 20.08,22.1258809 20.08,24.0892857 C20.08,25.0891589 20.5314717,26.0326835 21.3102454,26.7031774 L23.9765191,28.8067991 Z M20.6826948,27.4818224 C19.6663739,26.6119117 19.08,25.3905508 19.08,24.0892857 C19.08,21.5555147 21.2821001,19.5178571 23.98,19.5178571 C26.6778999,19.5178571 28.88,21.5555147 28.88,24.0892857 C28.88,25.4130178 28.2743002,26.6076459 27.2155641,27.4784266 L23.9834828,30.0860596 L20.6826948,27.4818224 Z" id="Combined-Shape"></path>
                <path d="M38.5,75.5 C16.9637968,75.5 -0.5,58.4898083 -0.5,37.5 C-0.5,16.5101917 16.9637968,-0.5 38.5,-0.5 C60.0362032,-0.5 77.5,16.5101917 77.5,37.5 C77.5,58.4898083 60.0362032,75.5 38.5,75.5 Z M38.5,74.5 C59.4897226,74.5 76.5,57.9315479 76.5,37.5 C76.5,17.0684521 59.4897226,0.5 38.5,0.5 C17.5102774,0.5 0.5,17.0684521 0.5,37.5 C0.5,57.9315479 17.5102774,74.5 38.5,74.5 Z" id="Oval"></path>
            </g>
        </g>
    </g>
</svg>
