<svg width="79px" height="247px" viewBox="0 0 79 247" version="1.1" xmlns="http://www.w3.org/2000/svg" xmlns:xlink="http://www.w3.org/1999/xlink">
    <g id="Symbols" stroke="none" stroke-width="1" fill="none" fill-rule="evenodd">
        <g id="Mail" transform="translate(1.000000, 1.000000)" fill-rule="nonzero">
            <g fill="#DB3C71">
                <path d="M16.94,24 L16.94,50.25 L60.06,50.25 L60.06,24 L16.94,24 Z M16.94,23 L60.06,23 C60.6122847,23 61.06,23.4477153 61.06,24 L61.06,50.25 C61.06,50.8022847 60.6122847,51.25 60.06,51.25 L16.94,51.25 C16.3877153,51.25 15.94,50.8022847 15.94,50.25 L15.94,24 C15.94,23.4477153 16.3877153,23 16.94,23 Z" id="Rectangle-2"></path>
                <path d="M38.5,24.6403414 L17.2523696,41.6404167 C17.0367484,41.8129337 16.7221002,41.7779908 16.5495833,41.5623696 C16.3770663,41.3467484 16.4120092,41.0321002 16.6276304,40.8595833 L38.1876304,23.6095833 C38.370248,23.4634722 38.629752,23.4634722 38.8123696,23.6095833 L60.3723696,40.8595833 C60.5879908,41.0321002 60.6229337,41.3467484 60.4504167,41.5623696 C60.2778998,41.7779908 59.9632516,41.8129337 59.7476304,41.6404167 L38.5,24.6403414 Z" id="Triangle-2" transform="translate(38.500000, 32.625009) scale(1, -1) translate(-38.500000, -32.625009) "></path>
                <path d="M45.2630665,39.051422 C45.0474453,38.878905 45.0125024,38.5642568 45.1850193,38.3486356 C45.3575363,38.1330144 45.6721845,38.0980715 45.8878057,38.2705885 L60.3723696,49.8595833 C60.5879908,50.0321002 60.6229337,50.3467484 60.4504167,50.5623696 C60.2778998,50.7779908 59.9632516,50.8129337 59.7476304,50.6404167 L45.2630665,39.051422 Z M17.2523696,50.6404167 C17.0367484,50.8129337 16.7221002,50.7779908 16.5495833,50.5623696 C16.3770663,50.3467484 16.4120092,50.0321002 16.6276304,49.8595833 L31.1277217,38.2581651 C31.3433429,38.0856481 31.6579911,38.120591 31.8305081,38.3362122 C32.003025,38.5518334 31.9680822,38.8664816 31.7524609,39.0389986 L17.2523696,50.6404167 Z" id="Triangle-3"></path>
                <path d="M38.5,75.5 C16.9637968,75.5 -0.5,58.4898083 -0.5,37.5 C-0.5,16.5101917 16.9637968,-0.5 38.5,-0.5 C60.0362032,-0.5 77.5,16.5101917 77.5,37.5 C77.5,58.4898083 60.0362032,75.5 38.5,75.5 Z M38.5,74.5 C59.4897226,74.5 76.5,57.9315479 76.5,37.5 C76.5,17.0684521 59.4897226,0.5 38.5,0.5 C17.5102774,0.5 0.5,17.0684521 0.5,37.5 C0.5,57.9315479 17.5102774,74.5 38.5,74.5 Z" id="Oval-5"></path>
            </g>
        </g>
    </g>
</svg>
