<svg xmlns="http://www.w3.org/2000/svg" viewBox="0 0 79 77">
  <g fill="#000000">
    <path d="M17.94,25 L17.94,51.25 L61.06,51.25 L61.06,25 L17.94,25 Z M17.94,24 L61.06,24 C61.6122847,24 62.06,24.4477153 62.06,25 L62.06,51.25 C62.06,51.8022847 61.6122847,52.25 61.06,52.25 L17.94,52.25 C17.3877153,52.25 16.94,51.8022847 16.94,51.25 L16.94,25 C16.94,24.4477153 17.3877153,24 17.94,24 Z"/>
    <path d="M39.5,25.6403414 L18.2523696,42.6404167 C18.0367484,42.8129337 17.7221002,42.7779908 17.5495833,42.5623696 C17.3770663,42.3467484 17.4120092,42.0321002 17.6276304,41.8595833 L39.1876304,24.6095833 C39.370248,24.4634722 39.629752,24.4634722 39.8123696,24.6095833 L61.3723696,41.8595833 C61.5879908,42.0321002 61.6229337,42.3467484 61.4504167,42.5623696 C61.2778998,42.7779908 60.9632516,42.8129337 60.7476304,42.6404167 L39.5,25.6403414 Z" transform="matrix(1 0 0 -1 0 67.25)"/>
    <path d="M46.2630665,40.051422 C46.0474453,39.878905 46.0125024,39.5642568 46.1850193,39.3486356 C46.3575363,39.1330144 46.6721845,39.0980715 46.8878057,39.2705885 L61.3723696,50.8595833 C61.5879908,51.0321002 61.6229337,51.3467484 61.4504167,51.5623696 C61.2778998,51.7779908 60.9632516,51.8129337 60.7476304,51.6404167 L46.2630665,40.051422 Z M18.2523696,51.6404167 C18.0367484,51.8129337 17.7221002,51.7779908 17.5495833,51.5623696 C17.3770663,51.3467484 17.4120092,51.0321002 17.6276304,50.8595833 L32.1277217,39.2581651 C32.3433429,39.0856481 32.6579911,39.120591 32.8305081,39.3362122 C33.003025,39.5518334 32.9680822,39.8664816 32.7524609,40.0389986 L18.2523696,51.6404167 Z"/>
    <path d="M39.5,76.5 C17.9637968,76.5 0.5,59.4898083 0.5,38.5 C0.5,17.5101917 17.9637968,0.5 39.5,0.5 C61.0362032,0.5 78.5,17.5101917 78.5,38.5 C78.5,59.4898083 61.0362032,76.5 39.5,76.5 Z M39.5,75.5 C60.4897226,75.5 77.5,58.9315479 77.5,38.5 C77.5,18.0684521 60.4897226,1.5 39.5,1.5 C18.5102774,1.5 1.5,18.0684521 1.5,38.5 C1.5,58.9315479 18.5102774,75.5 39.5,75.5 Z"/>
  </g>
</svg>
