<svg xmlns="http://www.w3.org/2000/svg" viewBox="0 0 79 77">
  <g fill="#000000">
    <path d="M60.1202604,32.0875627 L61.1197396,32.0552944 C61.4917762,43.578764 56.7944641,52.9835554 47.0583363,60.222671 C40.5628558,65.0522638 31.7634476,66.2382546 22.0396081,64.6542091 C15.2375112,63.5461251 7.92743343,60.8212233 6.97150663,59.4668997 L7.78849337,58.8902432 C8.53330523,59.9454666 15.6588442,62.6015798 22.2003919,63.6672195 C31.6822534,65.211846 40.2198953,64.0611362 46.4616637,59.4201862 C55.9388692,52.3735875 60.4815572,43.2783789 60.1202604,32.0875627 Z"/>
    <path d="M38.212718,35.1360151 L37.2555532,35.4255586 C37.2260103,35.3274699 37.2260103,35.3274699 37.1969327,35.2292209 L38.1561568,34.9465744 C38.1842168,35.0413849 38.1842168,35.0413849 38.212718,35.1360151 Z M16.9738277,48.9667775 C17.1922324,49.3915368 17.5248228,49.9598516 17.6989182,50.2270393 C18.4497063,51.3792888 19.7340594,52.7323845 20.540258,53.3071613 C21.1491529,53.741271 21.3895155,53.9050765 21.7970329,54.146861 C22.5730355,54.6072717 23.3619604,54.9485293 24.2182965,55.1570527 C24.7678717,55.2908778 25.6954504,55.3951262 26.9870168,55.4650162 L26.9329832,56.4635553 C25.5845496,56.3905881 24.6054617,56.2805507 23.9817035,56.1286616 C23.0213628,55.8948124 22.14286,55.5148069 21.2867735,55.0068815 C20.8472729,54.7461211 20.5912947,54.5716737 19.959742,54.1214101 C19.0503,53.4730263 17.6791952,52.0285357 16.8610818,50.7729607 C16.6688752,50.4779774 16.3190733,49.8802524 16.0845033,49.4240544 C15.9220518,49.1081143 15.8066701,48.8489395 15.7462371,48.6482599 C15.696477,48.4830216 15.6765364,48.3465218 15.7064239,48.2004456 C15.7750169,47.8651954 16.0896768,47.6866096 16.4082965,47.7641956 C16.7156394,47.8390356 18.6183368,47.8899081 19.1183022,47.8581486 C18.7724603,47.7098067 18.4242031,47.5613915 18.136518,47.4009967 C16.7121725,46.6068731 15.150455,45.2843469 14.1447513,44.0687216 C12.7768914,42.4153469 12.086822,40.8270872 11.8352693,39.1081126 C11.7982019,38.8595517 11.7711816,38.673996 11.7436587,38.4681668 C11.7254091,38.3316874 11.7091034,38.2014936 11.694876,38.0770982 C11.6564347,37.7409925 11.6347214,37.4623845 11.6339633,37.2469369 C11.6334566,37.1029638 11.6419146,36.9844564 11.6646913,36.8816214 C11.7245076,36.6115566 11.8715573,36.3928571 12.22,36.3928571 C12.3691092,36.3928571 12.4567778,36.4256423 12.7723777,36.5626489 C12.8289551,36.5872101 12.9145832,36.624891 13.0737937,36.694884 C13.2041141,36.7519126 13.3112572,36.7978473 13.417666,36.8419272 C13.5225168,36.8853616 13.6215899,36.9248253 13.7170415,36.9609644 C13.7765187,36.9834832 13.8380382,37.0058082 13.9014794,37.0279342 C14.2768808,37.158861 14.5471825,37.2338191 15.093134,37.372542 C15.178773,37.3943023 15.267634,37.4151441 15.3597801,37.4351628 C15.4553422,37.4559235 15.5530176,37.4755395 15.6541819,37.4943791 C15.3265576,37.2020075 15.0178472,36.9077066 14.822675,36.696366 C14.3875795,36.2252264 14.0340832,35.7498807 13.7182489,35.2363572 C13.5987279,35.0420248 13.4898226,34.8513777 13.3671634,34.6256754 C13.3345573,34.5656775 13.1497155,34.220327 13.1024142,34.1347635 C11.8808094,31.9249959 11.5933639,29.7451755 11.8331601,27.6224455 C11.9521012,26.5695523 12.0727618,25.9442974 12.4117477,25.0389581 C12.2915394,25.3600017 12.6546552,24.3380878 12.803017,23.9854498 C13.004898,23.5056032 13.2001036,23.1465905 13.4153441,22.9175518 C13.4661084,22.8635333 13.5189128,22.8158426 13.5750574,22.7748278 C14.0055456,22.4603479 14.2894087,22.6728181 14.5831931,23.0986405 C14.6327101,23.1704123 14.922283,23.6347517 15.0173806,23.7709133 C15.0599673,23.8318894 15.1015122,23.8881979 15.1428347,23.9406768 C15.259379,24.0886859 15.3915484,24.2433539 15.5368739,24.4030152 C15.7306548,24.615912 15.9377291,24.82697 16.1568766,25.0390451 C16.2769691,25.1552618 16.5278084,25.3907919 16.5285829,25.3915451 C18.929196,27.7260442 21.3607395,29.4599 23.6966438,30.5708916 C26.2300014,32.0860577 29.2433005,33.1332036 32.4840751,33.7899211 C33.6701466,34.0302691 34.8200057,34.2038297 35.902142,34.320966 C36.3091127,34.3650187 36.6752919,34.3979484 36.9951669,34.4215978 C36.832182,33.6297051 36.7660247,32.8181595 36.8004384,31.9969231 C36.9147412,29.2692424 37.9818295,26.660168 39.7894019,24.6643558 C42.0951471,22.1184912 45.3182908,20.6428571 48.85,20.6428571 C52.2189256,20.6428571 55.3660476,21.9557086 57.6256117,24.222243 C59.2094067,23.7443745 60.334818,23.3823371 60.9969292,23.1380517 C61.6609216,22.8930722 64.0408809,21.7478464 64.3950574,21.4891136 C64.6659855,21.2911953 65.0199985,21.2275625 65.2339631,21.6454058 C65.325507,21.8241782 65.3120226,21.9582684 65.2564679,22.1578839 C65.2092082,22.3276944 65.113478,22.5597018 64.9746828,22.8559925 C64.7852311,23.2604211 64.501941,23.8054631 64.3562971,24.0656516 C64.1318485,24.4666221 63.9975048,24.6916499 63.7579577,25.0400518 C63.4010155,25.5591957 62.9899798,26.0604315 62.5117873,26.5338821 C62.2425584,26.8004413 61.9251859,27.0975078 61.6012401,27.3768019 C62.0913127,27.2645268 62.5827993,27.1459903 62.8023082,27.0880087 C63.3478839,26.9438989 65.614301,26.1365672 66.0110758,25.9433327 C66.5497298,25.6810012 66.9214056,26.2132445 66.7251225,26.6485901 C66.6818486,26.7445693 66.6093507,26.8565514 66.4996615,27.0069698 C66.3287663,27.2413207 66.0607261,27.5749248 65.7230421,27.9771107 C65.15393,28.6549302 64.4075138,29.499659 64.1655669,29.7443855 C64.0275984,29.8839391 63.8485815,29.9987278 63.603418,30.1209794 C63.4311015,30.2069055 62.6740324,30.534607 62.493157,30.6215971 C61.7121643,30.9972074 61.2881794,31.3721845 61.159302,31.8743042 C61.0451789,32.3189397 61.0343959,32.7390335 61.1243975,33.140667 L60.1485978,33.359333 C60.0232542,32.799986 60.0381394,32.2200798 60.190698,31.6256958 C60.4113616,30.7659672 61.0379064,30.2118438 62.0597378,29.7204047 C62.2670456,29.6207022 63.0152658,29.296831 63.1571689,29.2260705 C63.3123482,29.1486899 63.4105361,29.0857301 63.4544331,29.0413288 C63.6594645,28.8339419 64.3171359,28.0911459 64.8544783,27.4559543 C64.1251594,27.7169648 63.3666876,27.9732295 63.0576918,28.0548485 C62.7468043,28.1369671 61.9426453,28.3285042 61.3147981,28.4659443 C60.9090086,28.5547745 60.5653704,28.6242503 60.3059037,28.6685775 C59.6478859,28.7809932 59.6087172,28.7843969 59.3911288,28.5724601 C59.1431872,28.3309585 59.201901,28.0769103 59.3459117,27.8827718 C59.3844424,27.8308293 59.4269896,27.7886804 59.4814582,27.7420247 C59.5454745,27.6871907 59.6266689,27.6261084 59.7594212,27.5306879 C59.7735092,27.5205616 60.0360353,27.3333255 60.1219024,27.2711494 C60.2747353,27.1604835 60.4062993,27.0620474 60.5310611,26.9640058 C60.96553,26.622587 61.4385066,26.1893008 61.8082127,25.8232608 C62.2393573,25.3963914 62.6109355,24.9432719 62.9339387,24.4734897 C63.1517165,24.1567494 63.2732001,23.9532626 63.4837029,23.5772056 C63.5638841,23.4339644 63.6929887,23.1900274 63.8219925,22.9356768 C62.9309742,23.3836793 61.8056648,23.9055603 61.3430708,24.076234 C60.6166381,24.3442508 59.3783606,24.7405766 57.6223806,25.2675002 L57.3271758,25.3560834 L57.1154003,25.1321547 C55.0314262,22.9285859 52.0526424,21.6428571 48.85,21.6428571 C45.6051296,21.6428571 42.6495991,22.9959713 40.5305981,25.3356442 C38.8800712,27.1580564 37.9040897,29.544371 37.7995616,32.0387912 C37.7597349,32.9892011 37.8694164,33.9240696 38.1215478,34.8260087 L38.3068744,35.4889702 L37.6190989,35.4601825 C37.1626912,35.4410789 36.5441488,35.3963018 35.7945252,35.3151585 C34.6830783,35.1948495 33.5030771,35.0167392 32.2854696,34.7700006 C28.9422793,34.0925293 25.8258408,33.0095417 23.2256465,31.4517218 C20.828943,30.3144249 18.3079599,28.5167927 15.8314171,26.1084549 C15.838738,26.1155742 15.5890869,25.8811599 15.4614606,25.7576525 C15.228206,25.5319257 15.0068383,25.3062991 14.7973461,25.0761412 C14.6368454,24.8998076 14.4894439,24.7273146 14.3571653,24.5593232 C14.303412,24.4910576 14.2506138,24.4194967 14.1975395,24.3435044 C14.1365747,24.2562145 14.0253512,24.0827567 13.929961,23.9328133 C13.8649996,24.0562281 13.7955751,24.2049322 13.7247621,24.3732462 C13.5894201,24.6949376 13.2370887,25.6865011 13.3482523,25.3896133 C13.0447056,26.2003041 12.9373019,26.7568626 12.8268399,27.7346974 C12.6084329,29.6680853 12.8692681,31.646109 13.9775858,33.6509508 C14.0288385,33.7436621 14.2161156,34.0935626 14.2457963,34.1481774 C14.3605805,34.3593891 14.4610264,34.5352274 14.5700406,34.7124766 C14.8533587,35.1731311 15.1684344,35.5968126 15.557325,36.0179197 C15.8682287,36.3545793 16.5440675,36.9649887 17.0403985,37.3580143 C17.063473,37.3762862 17.1216321,37.4117515 17.2147692,37.4631031 C17.4683896,37.6012452 17.4792762,37.6072857 17.5478562,37.6504073 C17.6084834,37.6885285 17.6581077,37.7243259 17.7036743,37.7666362 C17.840036,37.8932529 17.9264033,38.0377807 17.8809387,38.27333 C17.831274,38.5306398 17.6863004,38.6228226 17.5031451,38.67412 C17.2927664,38.7039321 17.2203369,38.7044546 17.1372649,38.7018495 C17.0083649,38.6978074 16.8516292,38.6854941 16.7682065,38.6733903 C16.7172635,38.6659989 16.2301914,38.5997946 16.058113,38.5743789 C15.7230002,38.5248833 15.4294832,38.4736321 15.1474835,38.412368 C15.0442728,38.3899456 14.9441206,38.3664555 14.846866,38.3417437 C14.2728938,38.195901 13.9839857,38.1157831 13.5721682,37.9721557 C13.5006215,37.9472027 13.4308616,37.9218873 13.3629585,37.8961784 C13.2573111,37.8561791 13.1488227,37.812965 13.0349537,37.7657948 C12.947347,37.7295037 12.7988523,37.6661121 12.6522197,37.6017769 C12.6611893,37.7106649 12.673339,37.8317926 12.6883989,37.9634663 C12.7018547,38.0811148 12.7173837,38.2051073 12.7348367,38.3356295 C12.7614566,38.5347055 12.7875131,38.7136423 12.8247307,38.963316 C13.0501782,40.5039017 13.6659994,41.921272 14.9152487,43.4312784 C15.8436511,44.5534672 17.3101037,45.7953193 18.623482,46.5275747 C18.8925509,46.6775902 19.253836,46.8255515 19.6983745,46.9737277 C20.0514552,47.0914187 20.2095351,47.1372477 20.9345813,47.3398812 C20.9306656,47.3387868 21.1715377,47.3767963 21.2344767,47.3876093 C21.4088928,47.4175744 21.5310057,47.4447887 21.6323427,47.4837602 C21.8228612,47.5570283 21.9446326,47.6396667 21.999457,47.8805837 C22.0468116,48.0886764 21.9664673,48.2710294 21.8319515,48.3890818 C21.7706848,48.44285 21.7081067,48.4763205 21.6375879,48.5031141 C21.4148925,48.5877268 20.9571085,48.6900021 20.5354749,48.7456945 C20.1543977,48.7908684 19.9225167,48.8106048 19.6676684,48.8273873 C19.5303795,48.8364282 19.1906846,48.8555662 19.1816978,48.8561371 C18.7655724,48.8825708 17.6665285,48.8644284 16.8975488,48.8150848 C16.9212549,48.8634073 16.946719,48.9140558 16.9738277,48.9667775 Z M12.6390002,37.106199 C12.6397622,37.103336 12.6404334,37.1005623 12.6410299,37.0978691 C12.6408017,37.0988994 12.6405725,37.1000835 12.6403434,37.1014177 L12.6390002,37.106199 Z M64.9631919,22.3108839 C64.9711789,22.3062171 64.9783301,22.3014313 64.9849426,22.2966007 C64.980821,22.2996116 64.9765259,22.3026964 64.9720603,22.3058538 L64.9631919,22.3108839 Z M66.4489242,26.8423815 C66.4457948,26.8439056 66.4425789,26.8454577 66.4392776,26.8470374 C66.4416045,26.8461072 66.4449865,26.8443858 66.4489242,26.8423815 Z M65.8014866,26.2583978 C65.8078264,26.2482035 65.8119018,26.2411062 65.8134972,26.2375679 C65.8128812,26.2389341 65.8122693,26.2402976 65.8116618,26.2416585 L65.8014866,26.2583978 Z M16.9950678,38.4839948 C17.0016181,38.4881821 17.0084469,38.4924929 17.0155587,38.4969647 C17.0119323,38.4946845 17.0085134,38.4925429 17.0051779,38.4904702 L16.9950678,38.4839948 Z M21.2611328,48.4123091 C21.2651763,48.4139282 21.2692648,48.4155295 21.2733986,48.4171192 C21.271853,48.4165248 21.2699286,48.4158659 21.2676403,48.415147 L21.2611328,48.4123091 Z"/>
    <path d="M17.0649299,69.5868051 C16.8372598,69.4305331 16.7793802,69.1192865 16.9356522,68.8916164 C17.0919243,68.6639463 17.4031708,68.6060668 17.6308409,68.7623388 C23.983435,73.1227393 31.5577493,75.5 39.5,75.5 C60.4897226,75.5 77.5,58.9315479 77.5,38.5 C77.5,18.0684521 60.4897226,1.5 39.5,1.5 C18.5102774,1.5 1.5,18.0684521 1.5,38.5 C1.5,45.9037222 3.73722577,52.9821125 7.86677261,59.0086389 C8.02286366,59.2364331 7.96473676,59.5476336 7.73694257,59.7037247 C7.50914837,59.8598157 7.19794789,59.8016888 7.04185684,59.5738946 C2.79937297,53.3825515 0.5,46.1075329 0.5,38.5 C0.5,17.5101917 17.9637968,0.5 39.5,0.5 C61.0362032,0.5 78.5,17.5101917 78.5,38.5 C78.5,59.4898083 61.0362032,76.5 39.5,76.5 C31.3545298,76.5 23.5831442,74.0608868 17.0649299,69.5868051 Z"/>
  </g>
</svg>
