
<svg width="79px" height="247px" viewBox="0 0 79 247" version="1.1" xmlns="http://www.w3.org/2000/svg" xmlns:xlink="http://www.w3.org/1999/xlink">
    <!-- Generator: Sketch 50.2 (55047) - http://www.bohemiancoding.com/sketch -->
    <desc>Created with Sketch.</desc>
    <defs></defs>
    <g id="Symbols" stroke="none" stroke-width="1" fill="none" fill-rule="evenodd">
        <g id="Twiter" transform="translate(1.000000, 1.000000)" fill-rule="nonzero">
            <g transform="translate(0.000000, 170.000000)" fill="#FAD393">
                <path d="M59.1202604,31.0875627 L60.1197396,31.0552944 C60.4917762,42.578764 55.7944641,51.9835554 46.0583363,59.222671 C39.5628558,64.0522638 30.7634476,65.2382546 21.0396081,63.6542091 C14.2375112,62.5461251 6.92743343,59.8212233 5.97150663,58.4668997 L6.78849337,57.8902432 C7.53330523,58.9454666 14.6588442,61.6015798 21.2003919,62.6672195 C30.6822534,64.211846 39.2198953,63.0611362 45.4616637,58.4201862 C54.9388692,51.3735875 59.4815572,42.2783789 59.1202604,31.0875627 Z" id="6B8451"></path>
                <path d="M37.212718,34.1360151 L36.2555532,34.4255586 C36.2260103,34.3274699 36.2260103,34.3274699 36.1969327,34.2292209 L37.1561568,33.9465744 C37.1842168,34.0413849 37.1842168,34.0413849 37.212718,34.1360151 Z M15.9738277,47.9667775 C16.1922324,48.3915368 16.5248228,48.9598516 16.6989182,49.2270393 C17.4497063,50.3792888 18.7340594,51.7323845 19.540258,52.3071613 C20.1491529,52.741271 20.3895155,52.9050765 20.7970329,53.146861 C21.5730355,53.6072717 22.3619604,53.9485293 23.2182965,54.1570527 C23.7678717,54.2908778 24.6954504,54.3951262 25.9870168,54.4650162 L25.9329832,55.4635553 C24.5845496,55.3905881 23.6054617,55.2805507 22.9817035,55.1286616 C22.0213628,54.8948124 21.14286,54.5148069 20.2867735,54.0068815 C19.8472729,53.7461211 19.5912947,53.5716737 18.959742,53.1214101 C18.0503,52.4730263 16.6791952,51.0285357 15.8610818,49.7729607 C15.6688752,49.4779774 15.3190733,48.8802524 15.0845033,48.4240544 C14.9220518,48.1081143 14.8066701,47.8489395 14.7462371,47.6482599 C14.696477,47.4830216 14.6765364,47.3465218 14.7064239,47.2004456 C14.7750169,46.8651954 15.0896768,46.6866096 15.4082965,46.7641956 C15.7156394,46.8390356 17.6183368,46.8899081 18.1183022,46.8581486 C17.7724603,46.7098067 17.4242031,46.5613915 17.136518,46.4009967 C15.7121725,45.6068731 14.150455,44.2843469 13.1447513,43.0687216 C11.7768914,41.4153469 11.086822,39.8270872 10.8352693,38.1081126 C10.7982019,37.8595517 10.7711816,37.673996 10.7436587,37.4681668 C10.7254091,37.3316874 10.7091034,37.2014936 10.694876,37.0770982 C10.6564347,36.7409925 10.6347214,36.4623845 10.6339633,36.2469369 C10.6334566,36.1029638 10.6419146,35.9844564 10.6646913,35.8816214 C10.7245076,35.6115566 10.8715573,35.3928571 11.22,35.3928571 C11.3691092,35.3928571 11.4567778,35.4256423 11.7723777,35.5626489 C11.8289551,35.5872101 11.9145832,35.624891 12.0737937,35.694884 C12.2041141,35.7519126 12.3112572,35.7978473 12.417666,35.8419272 C12.5225168,35.8853616 12.6215899,35.9248253 12.7170415,35.9609644 C12.7765187,35.9834832 12.8380382,36.0058082 12.9014794,36.0279342 C13.2768808,36.158861 13.5471825,36.2338191 14.093134,36.372542 C14.178773,36.3943023 14.267634,36.4151441 14.3597801,36.4351628 C14.4553422,36.4559235 14.5530176,36.4755395 14.6541819,36.4943791 C14.3265576,36.2020075 14.0178472,35.9077066 13.822675,35.696366 C13.3875795,35.2252264 13.0340832,34.7498807 12.7182489,34.2363572 C12.5987279,34.0420248 12.4898226,33.8513777 12.3671634,33.6256754 C12.3345573,33.5656775 12.1497155,33.220327 12.1024142,33.1347635 C10.8808094,30.9249959 10.5933639,28.7451755 10.8331601,26.6224455 C10.9521012,25.5695523 11.0727618,24.9442974 11.4117477,24.0389581 C11.2915394,24.3600017 11.6546552,23.3380878 11.803017,22.9854498 C12.004898,22.5056032 12.2001036,22.1465905 12.4153441,21.9175518 C12.4661084,21.8635333 12.5189128,21.8158426 12.5750574,21.7748278 C13.0055456,21.4603479 13.2894087,21.6728181 13.5831931,22.0986405 C13.6327101,22.1704123 13.922283,22.6347517 14.0173806,22.7709133 C14.0599673,22.8318894 14.1015122,22.8881979 14.1428347,22.9406768 C14.259379,23.0886859 14.3915484,23.2433539 14.5368739,23.4030152 C14.7306548,23.615912 14.9377291,23.82697 15.1568766,24.0390451 C15.2769691,24.1552618 15.5278084,24.3907919 15.5285829,24.3915451 C17.929196,26.7260442 20.3607395,28.4599 22.6966438,29.5708916 C25.2300014,31.0860577 28.2433005,32.1332036 31.4840751,32.7899211 C32.6701466,33.0302691 33.8200057,33.2038297 34.902142,33.320966 C35.3091127,33.3650187 35.6752919,33.3979484 35.9951669,33.4215978 C35.832182,32.6297051 35.7660247,31.8181595 35.8004384,30.9969231 C35.9147412,28.2692424 36.9818295,25.660168 38.7894019,23.6643558 C41.0951471,21.1184912 44.3182908,19.6428571 47.85,19.6428571 C51.2189256,19.6428571 54.3660476,20.9557086 56.6256117,23.222243 C58.2094067,22.7443745 59.334818,22.3823371 59.9969292,22.1380517 C60.6609216,21.8930722 63.0408809,20.7478464 63.3950574,20.4891136 C63.6659855,20.2911953 64.0199985,20.2275625 64.2339631,20.6454058 C64.325507,20.8241782 64.3120226,20.9582684 64.2564679,21.1578839 C64.2092082,21.3276944 64.113478,21.5597018 63.9746828,21.8559925 C63.7852311,22.2604211 63.501941,22.8054631 63.3562971,23.0656516 C63.1318485,23.4666221 62.9975048,23.6916499 62.7579577,24.0400518 C62.4010155,24.5591957 61.9899798,25.0604315 61.5117873,25.5338821 C61.2425584,25.8004413 60.9251859,26.0975078 60.6012401,26.3768019 C61.0913127,26.2645268 61.5827993,26.1459903 61.8023082,26.0880087 C62.3478839,25.9438989 64.614301,25.1365672 65.0110758,24.9433327 C65.5497298,24.6810012 65.9214056,25.2132445 65.7251225,25.6485901 C65.6818486,25.7445693 65.6093507,25.8565514 65.4996615,26.0069698 C65.3287663,26.2413207 65.0607261,26.5749248 64.7230421,26.9771107 C64.15393,27.6549302 63.4075138,28.499659 63.1655669,28.7443855 C63.0275984,28.8839391 62.8485815,28.9987278 62.603418,29.1209794 C62.4311015,29.2069055 61.6740324,29.534607 61.493157,29.6215971 C60.7121643,29.9972074 60.2881794,30.3721845 60.159302,30.8743042 C60.0451789,31.3189397 60.0343959,31.7390335 60.1243975,32.140667 L59.1485978,32.359333 C59.0232542,31.799986 59.0381394,31.2200798 59.190698,30.6256958 C59.4113616,29.7659672 60.0379064,29.2118438 61.0597378,28.7204047 C61.2670456,28.6207022 62.0152658,28.296831 62.1571689,28.2260705 C62.3123482,28.1486899 62.4105361,28.0857301 62.4544331,28.0413288 C62.6594645,27.8339419 63.3171359,27.0911459 63.8544783,26.4559543 C63.1251594,26.7169648 62.3666876,26.9732295 62.0576918,27.0548485 C61.7468043,27.1369671 60.9426453,27.3285042 60.3147981,27.4659443 C59.9090086,27.5547745 59.5653704,27.6242503 59.3059037,27.6685775 C58.6478859,27.7809932 58.6087172,27.7843969 58.3911288,27.5724601 C58.1431872,27.3309585 58.201901,27.0769103 58.3459117,26.8827718 C58.3844424,26.8308293 58.4269896,26.7886804 58.4814582,26.7420247 C58.5454745,26.6871907 58.6266689,26.6261084 58.7594212,26.5306879 C58.7735092,26.5205616 59.0360353,26.3333255 59.1219024,26.2711494 C59.2747353,26.1604835 59.4062993,26.0620474 59.5310611,25.9640058 C59.96553,25.622587 60.4385066,25.1893008 60.8082127,24.8232608 C61.2393573,24.3963914 61.6109355,23.9432719 61.9339387,23.4734897 C62.1517165,23.1567494 62.2732001,22.9532626 62.4837029,22.5772056 C62.5638841,22.4339644 62.6929887,22.1900274 62.8219925,21.9356768 C61.9309742,22.3836793 60.8056648,22.9055603 60.3430708,23.076234 C59.6166381,23.3442508 58.3783606,23.7405766 56.6223806,24.2675002 L56.3271758,24.3560834 L56.1154003,24.1321547 C54.0314262,21.9285859 51.0526424,20.6428571 47.85,20.6428571 C44.6051296,20.6428571 41.6495991,21.9959713 39.5305981,24.3356442 C37.8800712,26.1580564 36.9040897,28.544371 36.7995616,31.0387912 C36.7597349,31.9892011 36.8694164,32.9240696 37.1215478,33.8260087 L37.3068744,34.4889702 L36.6190989,34.4601825 C36.1626912,34.4410789 35.5441488,34.3963018 34.7945252,34.3151585 C33.6830783,34.1948495 32.5030771,34.0167392 31.2854696,33.7700006 C27.9422793,33.0925293 24.8258408,32.0095417 22.2256465,30.4517218 C19.828943,29.3144249 17.3079599,27.5167927 14.8314171,25.1084549 C14.838738,25.1155742 14.5890869,24.8811599 14.4614606,24.7576525 C14.228206,24.5319257 14.0068383,24.3062991 13.7973461,24.0761412 C13.6368454,23.8998076 13.4894439,23.7273146 13.3571653,23.5593232 C13.303412,23.4910576 13.2506138,23.4194967 13.1975395,23.3435044 C13.1365747,23.2562145 13.0253512,23.0827567 12.929961,22.9328133 C12.8649996,23.0562281 12.7955751,23.2049322 12.7247621,23.3732462 C12.5894201,23.6949376 12.2370887,24.6865011 12.3482523,24.3896133 C12.0447056,25.2003041 11.9373019,25.7568626 11.8268399,26.7346974 C11.6084329,28.6680853 11.8692681,30.646109 12.9775858,32.6509508 C13.0288385,32.7436621 13.2161156,33.0935626 13.2457963,33.1481774 C13.3605805,33.3593891 13.4610264,33.5352274 13.5700406,33.7124766 C13.8533587,34.1731311 14.1684344,34.5968126 14.557325,35.0179197 C14.8682287,35.3545793 15.5440675,35.9649887 16.0403985,36.3580143 C16.063473,36.3762862 16.1216321,36.4117515 16.2147692,36.4631031 C16.4683896,36.6012452 16.4792762,36.6072857 16.5478562,36.6504073 C16.6084834,36.6885285 16.6581077,36.7243259 16.7036743,36.7666362 C16.840036,36.8932529 16.9264033,37.0377807 16.8809387,37.27333 C16.831274,37.5306398 16.6863004,37.6228226 16.5031451,37.67412 C16.2927664,37.7039321 16.2203369,37.7044546 16.1372649,37.7018495 C16.0083649,37.6978074 15.8516292,37.6854941 15.7682065,37.6733903 C15.7172635,37.6659989 15.2301914,37.5997946 15.058113,37.5743789 C14.7230002,37.5248833 14.4294832,37.4736321 14.1474835,37.412368 C14.0442728,37.3899456 13.9441206,37.3664555 13.846866,37.3417437 C13.2728938,37.195901 12.9839857,37.1157831 12.5721682,36.9721557 C12.5006215,36.9472027 12.4308616,36.9218873 12.3629585,36.8961784 C12.2573111,36.8561791 12.1488227,36.812965 12.0349537,36.7657948 C11.947347,36.7295037 11.7988523,36.6661121 11.6522197,36.6017769 C11.6611893,36.7106649 11.673339,36.8317926 11.6883989,36.9634663 C11.7018547,37.0811148 11.7173837,37.2051073 11.7348367,37.3356295 C11.7614566,37.5347055 11.7875131,37.7136423 11.8247307,37.963316 C12.0501782,39.5039017 12.6659994,40.921272 13.9152487,42.4312784 C14.8436511,43.5534672 16.3101037,44.7953193 17.623482,45.5275747 C17.8925509,45.6775902 18.253836,45.8255515 18.6983745,45.9737277 C19.0514552,46.0914187 19.2095351,46.1372477 19.9345813,46.3398812 C19.9306656,46.3387868 20.1715377,46.3767963 20.2344767,46.3876093 C20.4088928,46.4175744 20.5310057,46.4447887 20.6323427,46.4837602 C20.8228612,46.5570283 20.9446326,46.6396667 20.999457,46.8805837 C21.0468116,47.0886764 20.9664673,47.2710294 20.8319515,47.3890818 C20.7706848,47.44285 20.7081067,47.4763205 20.6375879,47.5031141 C20.4148925,47.5877268 19.9571085,47.6900021 19.5354749,47.7456945 C19.1543977,47.7908684 18.9225167,47.8106048 18.6676684,47.8273873 C18.5303795,47.8364282 18.1906846,47.8555662 18.1816978,47.8561371 C17.7655724,47.8825708 16.6665285,47.8644284 15.8975488,47.8150848 C15.9212549,47.8634073 15.946719,47.9140558 15.9738277,47.9667775 Z M11.6390002,36.106199 C11.6397622,36.103336 11.6404334,36.1005623 11.6410299,36.0978691 C11.6408017,36.0988994 11.6405725,36.1000835 11.6403434,36.1014177 L11.6390002,36.106199 Z M63.9631919,21.3108839 C63.9711789,21.3062171 63.9783301,21.3014313 63.9849426,21.2966007 C63.980821,21.2996116 63.9765259,21.3026964 63.9720603,21.3058538 L63.9631919,21.3108839 Z M65.4489242,25.8423815 C65.4457948,25.8439056 65.4425789,25.8454577 65.4392776,25.8470374 C65.4416045,25.8461072 65.4449865,25.8443858 65.4489242,25.8423815 Z M64.8014866,25.2583978 C64.8078264,25.2482035 64.8119018,25.2411062 64.8134972,25.2375679 C64.8128812,25.2389341 64.8122693,25.2402976 64.8116618,25.2416585 L64.8014866,25.2583978 Z M15.9950678,37.4839948 C16.0016181,37.4881821 16.0084469,37.4924929 16.0155587,37.4969647 C16.0119323,37.4946845 16.0085134,37.4925429 16.0051779,37.4904702 L15.9950678,37.4839948 Z M20.2611328,47.4123091 C20.2651763,47.4139282 20.2692648,47.4155295 20.2733986,47.4171192 C20.271853,47.4165248 20.2699286,47.4158659 20.2676403,47.415147 L20.2611328,47.4123091 Z" id="Combined-Shape"></path>
                <path d="M16.0649299,68.5868051 C15.8372598,68.4305331 15.7793802,68.1192865 15.9356522,67.8916164 C16.0919243,67.6639463 16.4031708,67.6060668 16.6308409,67.7623388 C22.983435,72.1227393 30.5577493,74.5 38.5,74.5 C59.4897226,74.5 76.5,57.9315479 76.5,37.5 C76.5,17.0684521 59.4897226,0.5 38.5,0.5 C17.5102774,0.5 0.5,17.0684521 0.5,37.5 C0.5,44.9037222 2.73722577,51.9821125 6.86677261,58.0086389 C7.02286366,58.2364331 6.96473676,58.5476336 6.73694257,58.7037247 C6.50914837,58.8598157 6.19794789,58.8016888 6.04185684,58.5738946 C1.79937297,52.3825515 -0.5,45.1075329 -0.5,37.5 C-0.5,16.5101917 16.9637968,-0.5 38.5,-0.5 C60.0362032,-0.5 77.5,16.5101917 77.5,37.5 C77.5,58.4898083 60.0362032,75.5 38.5,75.5 C30.3545298,75.5 22.5831442,73.0608868 16.0649299,68.5868051 Z" id="Oval-2"></path>
            </g>
            <g transform="translate(0.000000, 85.000000)" fill="#6A8250">
                <path d="M59.1202604,31.0875627 L60.1197396,31.0552944 C60.4917762,42.578764 55.7944641,51.9835554 46.0583363,59.222671 C39.5628558,64.0522638 30.7634476,65.2382546 21.0396081,63.6542091 C14.2375112,62.5461251 6.92743343,59.8212233 5.97150663,58.4668997 L6.78849337,57.8902432 C7.53330523,58.9454666 14.6588442,61.6015798 21.2003919,62.6672195 C30.6822534,64.211846 39.2198953,63.0611362 45.4616637,58.4201862 C54.9388692,51.3735875 59.4815572,42.2783789 59.1202604,31.0875627 Z" id="6B8451"></path>
                <path d="M37.212718,34.1360151 L36.2555532,34.4255586 C36.2260103,34.3274699 36.2260103,34.3274699 36.1969327,34.2292209 L37.1561568,33.9465744 C37.1842168,34.0413849 37.1842168,34.0413849 37.212718,34.1360151 Z M15.9738277,47.9667775 C16.1922324,48.3915368 16.5248228,48.9598516 16.6989182,49.2270393 C17.4497063,50.3792888 18.7340594,51.7323845 19.540258,52.3071613 C20.1491529,52.741271 20.3895155,52.9050765 20.7970329,53.146861 C21.5730355,53.6072717 22.3619604,53.9485293 23.2182965,54.1570527 C23.7678717,54.2908778 24.6954504,54.3951262 25.9870168,54.4650162 L25.9329832,55.4635553 C24.5845496,55.3905881 23.6054617,55.2805507 22.9817035,55.1286616 C22.0213628,54.8948124 21.14286,54.5148069 20.2867735,54.0068815 C19.8472729,53.7461211 19.5912947,53.5716737 18.959742,53.1214101 C18.0503,52.4730263 16.6791952,51.0285357 15.8610818,49.7729607 C15.6688752,49.4779774 15.3190733,48.8802524 15.0845033,48.4240544 C14.9220518,48.1081143 14.8066701,47.8489395 14.7462371,47.6482599 C14.696477,47.4830216 14.6765364,47.3465218 14.7064239,47.2004456 C14.7750169,46.8651954 15.0896768,46.6866096 15.4082965,46.7641956 C15.7156394,46.8390356 17.6183368,46.8899081 18.1183022,46.8581486 C17.7724603,46.7098067 17.4242031,46.5613915 17.136518,46.4009967 C15.7121725,45.6068731 14.150455,44.2843469 13.1447513,43.0687216 C11.7768914,41.4153469 11.086822,39.8270872 10.8352693,38.1081126 C10.7982019,37.8595517 10.7711816,37.673996 10.7436587,37.4681668 C10.7254091,37.3316874 10.7091034,37.2014936 10.694876,37.0770982 C10.6564347,36.7409925 10.6347214,36.4623845 10.6339633,36.2469369 C10.6334566,36.1029638 10.6419146,35.9844564 10.6646913,35.8816214 C10.7245076,35.6115566 10.8715573,35.3928571 11.22,35.3928571 C11.3691092,35.3928571 11.4567778,35.4256423 11.7723777,35.5626489 C11.8289551,35.5872101 11.9145832,35.624891 12.0737937,35.694884 C12.2041141,35.7519126 12.3112572,35.7978473 12.417666,35.8419272 C12.5225168,35.8853616 12.6215899,35.9248253 12.7170415,35.9609644 C12.7765187,35.9834832 12.8380382,36.0058082 12.9014794,36.0279342 C13.2768808,36.158861 13.5471825,36.2338191 14.093134,36.372542 C14.178773,36.3943023 14.267634,36.4151441 14.3597801,36.4351628 C14.4553422,36.4559235 14.5530176,36.4755395 14.6541819,36.4943791 C14.3265576,36.2020075 14.0178472,35.9077066 13.822675,35.696366 C13.3875795,35.2252264 13.0340832,34.7498807 12.7182489,34.2363572 C12.5987279,34.0420248 12.4898226,33.8513777 12.3671634,33.6256754 C12.3345573,33.5656775 12.1497155,33.220327 12.1024142,33.1347635 C10.8808094,30.9249959 10.5933639,28.7451755 10.8331601,26.6224455 C10.9521012,25.5695523 11.0727618,24.9442974 11.4117477,24.0389581 C11.2915394,24.3600017 11.6546552,23.3380878 11.803017,22.9854498 C12.004898,22.5056032 12.2001036,22.1465905 12.4153441,21.9175518 C12.4661084,21.8635333 12.5189128,21.8158426 12.5750574,21.7748278 C13.0055456,21.4603479 13.2894087,21.6728181 13.5831931,22.0986405 C13.6327101,22.1704123 13.922283,22.6347517 14.0173806,22.7709133 C14.0599673,22.8318894 14.1015122,22.8881979 14.1428347,22.9406768 C14.259379,23.0886859 14.3915484,23.2433539 14.5368739,23.4030152 C14.7306548,23.615912 14.9377291,23.82697 15.1568766,24.0390451 C15.2769691,24.1552618 15.5278084,24.3907919 15.5285829,24.3915451 C17.929196,26.7260442 20.3607395,28.4599 22.6966438,29.5708916 C25.2300014,31.0860577 28.2433005,32.1332036 31.4840751,32.7899211 C32.6701466,33.0302691 33.8200057,33.2038297 34.902142,33.320966 C35.3091127,33.3650187 35.6752919,33.3979484 35.9951669,33.4215978 C35.832182,32.6297051 35.7660247,31.8181595 35.8004384,30.9969231 C35.9147412,28.2692424 36.9818295,25.660168 38.7894019,23.6643558 C41.0951471,21.1184912 44.3182908,19.6428571 47.85,19.6428571 C51.2189256,19.6428571 54.3660476,20.9557086 56.6256117,23.222243 C58.2094067,22.7443745 59.334818,22.3823371 59.9969292,22.1380517 C60.6609216,21.8930722 63.0408809,20.7478464 63.3950574,20.4891136 C63.6659855,20.2911953 64.0199985,20.2275625 64.2339631,20.6454058 C64.325507,20.8241782 64.3120226,20.9582684 64.2564679,21.1578839 C64.2092082,21.3276944 64.113478,21.5597018 63.9746828,21.8559925 C63.7852311,22.2604211 63.501941,22.8054631 63.3562971,23.0656516 C63.1318485,23.4666221 62.9975048,23.6916499 62.7579577,24.0400518 C62.4010155,24.5591957 61.9899798,25.0604315 61.5117873,25.5338821 C61.2425584,25.8004413 60.9251859,26.0975078 60.6012401,26.3768019 C61.0913127,26.2645268 61.5827993,26.1459903 61.8023082,26.0880087 C62.3478839,25.9438989 64.614301,25.1365672 65.0110758,24.9433327 C65.5497298,24.6810012 65.9214056,25.2132445 65.7251225,25.6485901 C65.6818486,25.7445693 65.6093507,25.8565514 65.4996615,26.0069698 C65.3287663,26.2413207 65.0607261,26.5749248 64.7230421,26.9771107 C64.15393,27.6549302 63.4075138,28.499659 63.1655669,28.7443855 C63.0275984,28.8839391 62.8485815,28.9987278 62.603418,29.1209794 C62.4311015,29.2069055 61.6740324,29.534607 61.493157,29.6215971 C60.7121643,29.9972074 60.2881794,30.3721845 60.159302,30.8743042 C60.0451789,31.3189397 60.0343959,31.7390335 60.1243975,32.140667 L59.1485978,32.359333 C59.0232542,31.799986 59.0381394,31.2200798 59.190698,30.6256958 C59.4113616,29.7659672 60.0379064,29.2118438 61.0597378,28.7204047 C61.2670456,28.6207022 62.0152658,28.296831 62.1571689,28.2260705 C62.3123482,28.1486899 62.4105361,28.0857301 62.4544331,28.0413288 C62.6594645,27.8339419 63.3171359,27.0911459 63.8544783,26.4559543 C63.1251594,26.7169648 62.3666876,26.9732295 62.0576918,27.0548485 C61.7468043,27.1369671 60.9426453,27.3285042 60.3147981,27.4659443 C59.9090086,27.5547745 59.5653704,27.6242503 59.3059037,27.6685775 C58.6478859,27.7809932 58.6087172,27.7843969 58.3911288,27.5724601 C58.1431872,27.3309585 58.201901,27.0769103 58.3459117,26.8827718 C58.3844424,26.8308293 58.4269896,26.7886804 58.4814582,26.7420247 C58.5454745,26.6871907 58.6266689,26.6261084 58.7594212,26.5306879 C58.7735092,26.5205616 59.0360353,26.3333255 59.1219024,26.2711494 C59.2747353,26.1604835 59.4062993,26.0620474 59.5310611,25.9640058 C59.96553,25.622587 60.4385066,25.1893008 60.8082127,24.8232608 C61.2393573,24.3963914 61.6109355,23.9432719 61.9339387,23.4734897 C62.1517165,23.1567494 62.2732001,22.9532626 62.4837029,22.5772056 C62.5638841,22.4339644 62.6929887,22.1900274 62.8219925,21.9356768 C61.9309742,22.3836793 60.8056648,22.9055603 60.3430708,23.076234 C59.6166381,23.3442508 58.3783606,23.7405766 56.6223806,24.2675002 L56.3271758,24.3560834 L56.1154003,24.1321547 C54.0314262,21.9285859 51.0526424,20.6428571 47.85,20.6428571 C44.6051296,20.6428571 41.6495991,21.9959713 39.5305981,24.3356442 C37.8800712,26.1580564 36.9040897,28.544371 36.7995616,31.0387912 C36.7597349,31.9892011 36.8694164,32.9240696 37.1215478,33.8260087 L37.3068744,34.4889702 L36.6190989,34.4601825 C36.1626912,34.4410789 35.5441488,34.3963018 34.7945252,34.3151585 C33.6830783,34.1948495 32.5030771,34.0167392 31.2854696,33.7700006 C27.9422793,33.0925293 24.8258408,32.0095417 22.2256465,30.4517218 C19.828943,29.3144249 17.3079599,27.5167927 14.8314171,25.1084549 C14.838738,25.1155742 14.5890869,24.8811599 14.4614606,24.7576525 C14.228206,24.5319257 14.0068383,24.3062991 13.7973461,24.0761412 C13.6368454,23.8998076 13.4894439,23.7273146 13.3571653,23.5593232 C13.303412,23.4910576 13.2506138,23.4194967 13.1975395,23.3435044 C13.1365747,23.2562145 13.0253512,23.0827567 12.929961,22.9328133 C12.8649996,23.0562281 12.7955751,23.2049322 12.7247621,23.3732462 C12.5894201,23.6949376 12.2370887,24.6865011 12.3482523,24.3896133 C12.0447056,25.2003041 11.9373019,25.7568626 11.8268399,26.7346974 C11.6084329,28.6680853 11.8692681,30.646109 12.9775858,32.6509508 C13.0288385,32.7436621 13.2161156,33.0935626 13.2457963,33.1481774 C13.3605805,33.3593891 13.4610264,33.5352274 13.5700406,33.7124766 C13.8533587,34.1731311 14.1684344,34.5968126 14.557325,35.0179197 C14.8682287,35.3545793 15.5440675,35.9649887 16.0403985,36.3580143 C16.063473,36.3762862 16.1216321,36.4117515 16.2147692,36.4631031 C16.4683896,36.6012452 16.4792762,36.6072857 16.5478562,36.6504073 C16.6084834,36.6885285 16.6581077,36.7243259 16.7036743,36.7666362 C16.840036,36.8932529 16.9264033,37.0377807 16.8809387,37.27333 C16.831274,37.5306398 16.6863004,37.6228226 16.5031451,37.67412 C16.2927664,37.7039321 16.2203369,37.7044546 16.1372649,37.7018495 C16.0083649,37.6978074 15.8516292,37.6854941 15.7682065,37.6733903 C15.7172635,37.6659989 15.2301914,37.5997946 15.058113,37.5743789 C14.7230002,37.5248833 14.4294832,37.4736321 14.1474835,37.412368 C14.0442728,37.3899456 13.9441206,37.3664555 13.846866,37.3417437 C13.2728938,37.195901 12.9839857,37.1157831 12.5721682,36.9721557 C12.5006215,36.9472027 12.4308616,36.9218873 12.3629585,36.8961784 C12.2573111,36.8561791 12.1488227,36.812965 12.0349537,36.7657948 C11.947347,36.7295037 11.7988523,36.6661121 11.6522197,36.6017769 C11.6611893,36.7106649 11.673339,36.8317926 11.6883989,36.9634663 C11.7018547,37.0811148 11.7173837,37.2051073 11.7348367,37.3356295 C11.7614566,37.5347055 11.7875131,37.7136423 11.8247307,37.963316 C12.0501782,39.5039017 12.6659994,40.921272 13.9152487,42.4312784 C14.8436511,43.5534672 16.3101037,44.7953193 17.623482,45.5275747 C17.8925509,45.6775902 18.253836,45.8255515 18.6983745,45.9737277 C19.0514552,46.0914187 19.2095351,46.1372477 19.9345813,46.3398812 C19.9306656,46.3387868 20.1715377,46.3767963 20.2344767,46.3876093 C20.4088928,46.4175744 20.5310057,46.4447887 20.6323427,46.4837602 C20.8228612,46.5570283 20.9446326,46.6396667 20.999457,46.8805837 C21.0468116,47.0886764 20.9664673,47.2710294 20.8319515,47.3890818 C20.7706848,47.44285 20.7081067,47.4763205 20.6375879,47.5031141 C20.4148925,47.5877268 19.9571085,47.6900021 19.5354749,47.7456945 C19.1543977,47.7908684 18.9225167,47.8106048 18.6676684,47.8273873 C18.5303795,47.8364282 18.1906846,47.8555662 18.1816978,47.8561371 C17.7655724,47.8825708 16.6665285,47.8644284 15.8975488,47.8150848 C15.9212549,47.8634073 15.946719,47.9140558 15.9738277,47.9667775 Z M11.6390002,36.106199 C11.6397622,36.103336 11.6404334,36.1005623 11.6410299,36.0978691 C11.6408017,36.0988994 11.6405725,36.1000835 11.6403434,36.1014177 L11.6390002,36.106199 Z M63.9631919,21.3108839 C63.9711789,21.3062171 63.9783301,21.3014313 63.9849426,21.2966007 C63.980821,21.2996116 63.9765259,21.3026964 63.9720603,21.3058538 L63.9631919,21.3108839 Z M65.4489242,25.8423815 C65.4457948,25.8439056 65.4425789,25.8454577 65.4392776,25.8470374 C65.4416045,25.8461072 65.4449865,25.8443858 65.4489242,25.8423815 Z M64.8014866,25.2583978 C64.8078264,25.2482035 64.8119018,25.2411062 64.8134972,25.2375679 C64.8128812,25.2389341 64.8122693,25.2402976 64.8116618,25.2416585 L64.8014866,25.2583978 Z M15.9950678,37.4839948 C16.0016181,37.4881821 16.0084469,37.4924929 16.0155587,37.4969647 C16.0119323,37.4946845 16.0085134,37.4925429 16.0051779,37.4904702 L15.9950678,37.4839948 Z M20.2611328,47.4123091 C20.2651763,47.4139282 20.2692648,47.4155295 20.2733986,47.4171192 C20.271853,47.4165248 20.2699286,47.4158659 20.2676403,47.415147 L20.2611328,47.4123091 Z" id="Combined-Shape"></path>
                <path d="M16.0649299,68.5868051 C15.8372598,68.4305331 15.7793802,68.1192865 15.9356522,67.8916164 C16.0919243,67.6639463 16.4031708,67.6060668 16.6308409,67.7623388 C22.983435,72.1227393 30.5577493,74.5 38.5,74.5 C59.4897226,74.5 76.5,57.9315479 76.5,37.5 C76.5,17.0684521 59.4897226,0.5 38.5,0.5 C17.5102774,0.5 0.5,17.0684521 0.5,37.5 C0.5,44.9037222 2.73722577,51.9821125 6.86677261,58.0086389 C7.02286366,58.2364331 6.96473676,58.5476336 6.73694257,58.7037247 C6.50914837,58.8598157 6.19794789,58.8016888 6.04185684,58.5738946 C1.79937297,52.3825515 -0.5,45.1075329 -0.5,37.5 C-0.5,16.5101917 16.9637968,-0.5 38.5,-0.5 C60.0362032,-0.5 77.5,16.5101917 77.5,37.5 C77.5,58.4898083 60.0362032,75.5 38.5,75.5 C30.3545298,75.5 22.5831442,73.0608868 16.0649299,68.5868051 Z" id="Oval-2"></path>
            </g>
            <g fill="#DB3C71">
                <path d="M59.1202604,31.0875627 L60.1197396,31.0552944 C60.4917762,42.578764 55.7944641,51.9835554 46.0583363,59.222671 C39.5628558,64.0522638 30.7634476,65.2382546 21.0396081,63.6542091 C14.2375112,62.5461251 6.92743343,59.8212233 5.97150663,58.4668997 L6.78849337,57.8902432 C7.53330523,58.9454666 14.6588442,61.6015798 21.2003919,62.6672195 C30.6822534,64.211846 39.2198953,63.0611362 45.4616637,58.4201862 C54.9388692,51.3735875 59.4815572,42.2783789 59.1202604,31.0875627 Z" id="6B8451"></path>
                <path d="M37.212718,34.1360151 L36.2555532,34.4255586 C36.2260103,34.3274699 36.2260103,34.3274699 36.1969327,34.2292209 L37.1561568,33.9465744 C37.1842168,34.0413849 37.1842168,34.0413849 37.212718,34.1360151 Z M15.9738277,47.9667775 C16.1922324,48.3915368 16.5248228,48.9598516 16.6989182,49.2270393 C17.4497063,50.3792888 18.7340594,51.7323845 19.540258,52.3071613 C20.1491529,52.741271 20.3895155,52.9050765 20.7970329,53.146861 C21.5730355,53.6072717 22.3619604,53.9485293 23.2182965,54.1570527 C23.7678717,54.2908778 24.6954504,54.3951262 25.9870168,54.4650162 L25.9329832,55.4635553 C24.5845496,55.3905881 23.6054617,55.2805507 22.9817035,55.1286616 C22.0213628,54.8948124 21.14286,54.5148069 20.2867735,54.0068815 C19.8472729,53.7461211 19.5912947,53.5716737 18.959742,53.1214101 C18.0503,52.4730263 16.6791952,51.0285357 15.8610818,49.7729607 C15.6688752,49.4779774 15.3190733,48.8802524 15.0845033,48.4240544 C14.9220518,48.1081143 14.8066701,47.8489395 14.7462371,47.6482599 C14.696477,47.4830216 14.6765364,47.3465218 14.7064239,47.2004456 C14.7750169,46.8651954 15.0896768,46.6866096 15.4082965,46.7641956 C15.7156394,46.8390356 17.6183368,46.8899081 18.1183022,46.8581486 C17.7724603,46.7098067 17.4242031,46.5613915 17.136518,46.4009967 C15.7121725,45.6068731 14.150455,44.2843469 13.1447513,43.0687216 C11.7768914,41.4153469 11.086822,39.8270872 10.8352693,38.1081126 C10.7982019,37.8595517 10.7711816,37.673996 10.7436587,37.4681668 C10.7254091,37.3316874 10.7091034,37.2014936 10.694876,37.0770982 C10.6564347,36.7409925 10.6347214,36.4623845 10.6339633,36.2469369 C10.6334566,36.1029638 10.6419146,35.9844564 10.6646913,35.8816214 C10.7245076,35.6115566 10.8715573,35.3928571 11.22,35.3928571 C11.3691092,35.3928571 11.4567778,35.4256423 11.7723777,35.5626489 C11.8289551,35.5872101 11.9145832,35.624891 12.0737937,35.694884 C12.2041141,35.7519126 12.3112572,35.7978473 12.417666,35.8419272 C12.5225168,35.8853616 12.6215899,35.9248253 12.7170415,35.9609644 C12.7765187,35.9834832 12.8380382,36.0058082 12.9014794,36.0279342 C13.2768808,36.158861 13.5471825,36.2338191 14.093134,36.372542 C14.178773,36.3943023 14.267634,36.4151441 14.3597801,36.4351628 C14.4553422,36.4559235 14.5530176,36.4755395 14.6541819,36.4943791 C14.3265576,36.2020075 14.0178472,35.9077066 13.822675,35.696366 C13.3875795,35.2252264 13.0340832,34.7498807 12.7182489,34.2363572 C12.5987279,34.0420248 12.4898226,33.8513777 12.3671634,33.6256754 C12.3345573,33.5656775 12.1497155,33.220327 12.1024142,33.1347635 C10.8808094,30.9249959 10.5933639,28.7451755 10.8331601,26.6224455 C10.9521012,25.5695523 11.0727618,24.9442974 11.4117477,24.0389581 C11.2915394,24.3600017 11.6546552,23.3380878 11.803017,22.9854498 C12.004898,22.5056032 12.2001036,22.1465905 12.4153441,21.9175518 C12.4661084,21.8635333 12.5189128,21.8158426 12.5750574,21.7748278 C13.0055456,21.4603479 13.2894087,21.6728181 13.5831931,22.0986405 C13.6327101,22.1704123 13.922283,22.6347517 14.0173806,22.7709133 C14.0599673,22.8318894 14.1015122,22.8881979 14.1428347,22.9406768 C14.259379,23.0886859 14.3915484,23.2433539 14.5368739,23.4030152 C14.7306548,23.615912 14.9377291,23.82697 15.1568766,24.0390451 C15.2769691,24.1552618 15.5278084,24.3907919 15.5285829,24.3915451 C17.929196,26.7260442 20.3607395,28.4599 22.6966438,29.5708916 C25.2300014,31.0860577 28.2433005,32.1332036 31.4840751,32.7899211 C32.6701466,33.0302691 33.8200057,33.2038297 34.902142,33.320966 C35.3091127,33.3650187 35.6752919,33.3979484 35.9951669,33.4215978 C35.832182,32.6297051 35.7660247,31.8181595 35.8004384,30.9969231 C35.9147412,28.2692424 36.9818295,25.660168 38.7894019,23.6643558 C41.0951471,21.1184912 44.3182908,19.6428571 47.85,19.6428571 C51.2189256,19.6428571 54.3660476,20.9557086 56.6256117,23.222243 C58.2094067,22.7443745 59.334818,22.3823371 59.9969292,22.1380517 C60.6609216,21.8930722 63.0408809,20.7478464 63.3950574,20.4891136 C63.6659855,20.2911953 64.0199985,20.2275625 64.2339631,20.6454058 C64.325507,20.8241782 64.3120226,20.9582684 64.2564679,21.1578839 C64.2092082,21.3276944 64.113478,21.5597018 63.9746828,21.8559925 C63.7852311,22.2604211 63.501941,22.8054631 63.3562971,23.0656516 C63.1318485,23.4666221 62.9975048,23.6916499 62.7579577,24.0400518 C62.4010155,24.5591957 61.9899798,25.0604315 61.5117873,25.5338821 C61.2425584,25.8004413 60.9251859,26.0975078 60.6012401,26.3768019 C61.0913127,26.2645268 61.5827993,26.1459903 61.8023082,26.0880087 C62.3478839,25.9438989 64.614301,25.1365672 65.0110758,24.9433327 C65.5497298,24.6810012 65.9214056,25.2132445 65.7251225,25.6485901 C65.6818486,25.7445693 65.6093507,25.8565514 65.4996615,26.0069698 C65.3287663,26.2413207 65.0607261,26.5749248 64.7230421,26.9771107 C64.15393,27.6549302 63.4075138,28.499659 63.1655669,28.7443855 C63.0275984,28.8839391 62.8485815,28.9987278 62.603418,29.1209794 C62.4311015,29.2069055 61.6740324,29.534607 61.493157,29.6215971 C60.7121643,29.9972074 60.2881794,30.3721845 60.159302,30.8743042 C60.0451789,31.3189397 60.0343959,31.7390335 60.1243975,32.140667 L59.1485978,32.359333 C59.0232542,31.799986 59.0381394,31.2200798 59.190698,30.6256958 C59.4113616,29.7659672 60.0379064,29.2118438 61.0597378,28.7204047 C61.2670456,28.6207022 62.0152658,28.296831 62.1571689,28.2260705 C62.3123482,28.1486899 62.4105361,28.0857301 62.4544331,28.0413288 C62.6594645,27.8339419 63.3171359,27.0911459 63.8544783,26.4559543 C63.1251594,26.7169648 62.3666876,26.9732295 62.0576918,27.0548485 C61.7468043,27.1369671 60.9426453,27.3285042 60.3147981,27.4659443 C59.9090086,27.5547745 59.5653704,27.6242503 59.3059037,27.6685775 C58.6478859,27.7809932 58.6087172,27.7843969 58.3911288,27.5724601 C58.1431872,27.3309585 58.201901,27.0769103 58.3459117,26.8827718 C58.3844424,26.8308293 58.4269896,26.7886804 58.4814582,26.7420247 C58.5454745,26.6871907 58.6266689,26.6261084 58.7594212,26.5306879 C58.7735092,26.5205616 59.0360353,26.3333255 59.1219024,26.2711494 C59.2747353,26.1604835 59.4062993,26.0620474 59.5310611,25.9640058 C59.96553,25.622587 60.4385066,25.1893008 60.8082127,24.8232608 C61.2393573,24.3963914 61.6109355,23.9432719 61.9339387,23.4734897 C62.1517165,23.1567494 62.2732001,22.9532626 62.4837029,22.5772056 C62.5638841,22.4339644 62.6929887,22.1900274 62.8219925,21.9356768 C61.9309742,22.3836793 60.8056648,22.9055603 60.3430708,23.076234 C59.6166381,23.3442508 58.3783606,23.7405766 56.6223806,24.2675002 L56.3271758,24.3560834 L56.1154003,24.1321547 C54.0314262,21.9285859 51.0526424,20.6428571 47.85,20.6428571 C44.6051296,20.6428571 41.6495991,21.9959713 39.5305981,24.3356442 C37.8800712,26.1580564 36.9040897,28.544371 36.7995616,31.0387912 C36.7597349,31.9892011 36.8694164,32.9240696 37.1215478,33.8260087 L37.3068744,34.4889702 L36.6190989,34.4601825 C36.1626912,34.4410789 35.5441488,34.3963018 34.7945252,34.3151585 C33.6830783,34.1948495 32.5030771,34.0167392 31.2854696,33.7700006 C27.9422793,33.0925293 24.8258408,32.0095417 22.2256465,30.4517218 C19.828943,29.3144249 17.3079599,27.5167927 14.8314171,25.1084549 C14.838738,25.1155742 14.5890869,24.8811599 14.4614606,24.7576525 C14.228206,24.5319257 14.0068383,24.3062991 13.7973461,24.0761412 C13.6368454,23.8998076 13.4894439,23.7273146 13.3571653,23.5593232 C13.303412,23.4910576 13.2506138,23.4194967 13.1975395,23.3435044 C13.1365747,23.2562145 13.0253512,23.0827567 12.929961,22.9328133 C12.8649996,23.0562281 12.7955751,23.2049322 12.7247621,23.3732462 C12.5894201,23.6949376 12.2370887,24.6865011 12.3482523,24.3896133 C12.0447056,25.2003041 11.9373019,25.7568626 11.8268399,26.7346974 C11.6084329,28.6680853 11.8692681,30.646109 12.9775858,32.6509508 C13.0288385,32.7436621 13.2161156,33.0935626 13.2457963,33.1481774 C13.3605805,33.3593891 13.4610264,33.5352274 13.5700406,33.7124766 C13.8533587,34.1731311 14.1684344,34.5968126 14.557325,35.0179197 C14.8682287,35.3545793 15.5440675,35.9649887 16.0403985,36.3580143 C16.063473,36.3762862 16.1216321,36.4117515 16.2147692,36.4631031 C16.4683896,36.6012452 16.4792762,36.6072857 16.5478562,36.6504073 C16.6084834,36.6885285 16.6581077,36.7243259 16.7036743,36.7666362 C16.840036,36.8932529 16.9264033,37.0377807 16.8809387,37.27333 C16.831274,37.5306398 16.6863004,37.6228226 16.5031451,37.67412 C16.2927664,37.7039321 16.2203369,37.7044546 16.1372649,37.7018495 C16.0083649,37.6978074 15.8516292,37.6854941 15.7682065,37.6733903 C15.7172635,37.6659989 15.2301914,37.5997946 15.058113,37.5743789 C14.7230002,37.5248833 14.4294832,37.4736321 14.1474835,37.412368 C14.0442728,37.3899456 13.9441206,37.3664555 13.846866,37.3417437 C13.2728938,37.195901 12.9839857,37.1157831 12.5721682,36.9721557 C12.5006215,36.9472027 12.4308616,36.9218873 12.3629585,36.8961784 C12.2573111,36.8561791 12.1488227,36.812965 12.0349537,36.7657948 C11.947347,36.7295037 11.7988523,36.6661121 11.6522197,36.6017769 C11.6611893,36.7106649 11.673339,36.8317926 11.6883989,36.9634663 C11.7018547,37.0811148 11.7173837,37.2051073 11.7348367,37.3356295 C11.7614566,37.5347055 11.7875131,37.7136423 11.8247307,37.963316 C12.0501782,39.5039017 12.6659994,40.921272 13.9152487,42.4312784 C14.8436511,43.5534672 16.3101037,44.7953193 17.623482,45.5275747 C17.8925509,45.6775902 18.253836,45.8255515 18.6983745,45.9737277 C19.0514552,46.0914187 19.2095351,46.1372477 19.9345813,46.3398812 C19.9306656,46.3387868 20.1715377,46.3767963 20.2344767,46.3876093 C20.4088928,46.4175744 20.5310057,46.4447887 20.6323427,46.4837602 C20.8228612,46.5570283 20.9446326,46.6396667 20.999457,46.8805837 C21.0468116,47.0886764 20.9664673,47.2710294 20.8319515,47.3890818 C20.7706848,47.44285 20.7081067,47.4763205 20.6375879,47.5031141 C20.4148925,47.5877268 19.9571085,47.6900021 19.5354749,47.7456945 C19.1543977,47.7908684 18.9225167,47.8106048 18.6676684,47.8273873 C18.5303795,47.8364282 18.1906846,47.8555662 18.1816978,47.8561371 C17.7655724,47.8825708 16.6665285,47.8644284 15.8975488,47.8150848 C15.9212549,47.8634073 15.946719,47.9140558 15.9738277,47.9667775 Z M11.6390002,36.106199 C11.6397622,36.103336 11.6404334,36.1005623 11.6410299,36.0978691 C11.6408017,36.0988994 11.6405725,36.1000835 11.6403434,36.1014177 L11.6390002,36.106199 Z M63.9631919,21.3108839 C63.9711789,21.3062171 63.9783301,21.3014313 63.9849426,21.2966007 C63.980821,21.2996116 63.9765259,21.3026964 63.9720603,21.3058538 L63.9631919,21.3108839 Z M65.4489242,25.8423815 C65.4457948,25.8439056 65.4425789,25.8454577 65.4392776,25.8470374 C65.4416045,25.8461072 65.4449865,25.8443858 65.4489242,25.8423815 Z M64.8014866,25.2583978 C64.8078264,25.2482035 64.8119018,25.2411062 64.8134972,25.2375679 C64.8128812,25.2389341 64.8122693,25.2402976 64.8116618,25.2416585 L64.8014866,25.2583978 Z M15.9950678,37.4839948 C16.0016181,37.4881821 16.0084469,37.4924929 16.0155587,37.4969647 C16.0119323,37.4946845 16.0085134,37.4925429 16.0051779,37.4904702 L15.9950678,37.4839948 Z M20.2611328,47.4123091 C20.2651763,47.4139282 20.2692648,47.4155295 20.2733986,47.4171192 C20.271853,47.4165248 20.2699286,47.4158659 20.2676403,47.415147 L20.2611328,47.4123091 Z" id="Combined-Shape"></path>
                <path d="M16.0649299,68.5868051 C15.8372598,68.4305331 15.7793802,68.1192865 15.9356522,67.8916164 C16.0919243,67.6639463 16.4031708,67.6060668 16.6308409,67.7623388 C22.983435,72.1227393 30.5577493,74.5 38.5,74.5 C59.4897226,74.5 76.5,57.9315479 76.5,37.5 C76.5,17.0684521 59.4897226,0.5 38.5,0.5 C17.5102774,0.5 0.5,17.0684521 0.5,37.5 C0.5,44.9037222 2.73722577,51.9821125 6.86677261,58.0086389 C7.02286366,58.2364331 6.96473676,58.5476336 6.73694257,58.7037247 C6.50914837,58.8598157 6.19794789,58.8016888 6.04185684,58.5738946 C1.79937297,52.3825515 -0.5,45.1075329 -0.5,37.5 C-0.5,16.5101917 16.9637968,-0.5 38.5,-0.5 C60.0362032,-0.5 77.5,16.5101917 77.5,37.5 C77.5,58.4898083 60.0362032,75.5 38.5,75.5 C30.3545298,75.5 22.5831442,73.0608868 16.0649299,68.5868051 Z" id="Oval-2"></path>
            </g>
        </g>
    </g>
</svg>
